<?xml version="1.0" encoding="utf-8"?>
<!-- Generator: Adobe Illustrator 22.1.0, SVG Export Plug-In . SVG Version: 6.00 Build 0)  -->
<svg version="1.1" id="Layer_1" xmlns="http://www.w3.org/2000/svg" xmlns:xlink="http://www.w3.org/1999/xlink" x="0px" y="0px"
	 viewBox="0 0 144 144" style="enable-background:new 0 0 144 144;" xml:space="preserve">
<style type="text/css">
	.st0{fill:#003359;}
	.st1{fill:#FFFFFF;}
</style>
<title>JJ-Icons-Marketing Services-v1</title>
<g>
	<path class="st0" d="M40,117.8V80h-6.1v38h-4.5c3.7,3.7,5,7.8,4.1,12.4c-0.6,3.1-2.3,5.8-4.8,7.6c-5,3.7-11.9,3.3-16.4-1
		c-5-4.8-5-11.3,0.2-18.8H8.3c0-0.8,0-1.4,0-2c0-19.9,0-39.7,0-59.6c0-1.7,0.5-2.2,2.2-2.2c6,0.1,12,0,17.9,0h2.1V41.7H17.9v-9.5
		H8.4v-6.4h9.4v-9.6h12.7V3.5h82.9V16h12.8v9.7h9.5V32h-9.4v9.5h-12.7v12.9h22.1V118h-4.3c3,3.3,4.7,6.8,4.2,11
		c-0.4,4-2.7,7.7-6.2,9.7c-5.2,3.1-12,2.1-16-2.5c-3.4-3.8-5.4-11.2,0.9-18h-4.1V80H104v37.8 M97.4,60.9H46.7v50.7h50.8V60.9z
		 M107,54.3V9.9H37v44.4h12.8V35.4h44.7v18.9H107z M87.9,41.8H56.2v12.5h31.7V41.8z M27.3,111.7V80.1H14.8v31.6L27.3,111.7z
		 M129.3,111.7V80h-12.5v31.6L129.3,111.7z M40.1,60.9H14.8v12.5h25.3V60.9z M129.3,73.4V60.9H104v12.5L129.3,73.4z M27.4,127.6
		c0-3.5-2.9-6.3-6.4-6.3c-3.5,0-6.3,2.9-6.3,6.4s2.9,6.3,6.4,6.3S27.4,131.1,27.4,127.6L27.4,127.6z M116.7,127.6
		c0,3.5,2.8,6.4,6.3,6.4c3.5,0,6.4-2.8,6.4-6.3c0-3.5-2.8-6.4-6.3-6.4C119.6,121.3,116.7,124.1,116.7,127.6z M113.6,22.5v12.6h6.1
		V22.5H113.6z M24.3,22.5v12.6h6.1V22.5H24.3z"/>
	<path class="st1" d="M21,141.5c-3.4,0-6.9-1.3-9.5-3.8c-5-4.8-5.3-11.3-1-18.5H7.3V56.6c0-0.9,0.1-1.8,0.8-2.5
		c0.7-0.6,1.6-0.7,2.4-0.7c4,0.1,8,0,12,0c2,0,4,0,5.9,0h1.1V42.7H16.9v-9.5H7.4v-8.4h9.4v-9.6h12.7V2.5h84.9V15h12.8v9.7h9.5V33
		h-9.5v9.5h-12.7v10.9h22.1V119h-3.1c2.5,3.3,3.5,6.5,3.1,10.1c-0.4,4.3-2.9,8.3-6.7,10.5c-5.6,3.3-12.9,2.2-17.2-2.7
		c-3.7-4.1-5.2-11.2-0.4-17.7h-3V81H105v36.8h-2V79h8.3v38.2h5.4l-1.5,1.7c-6.3,6.9-3.6,13.7-0.9,16.7c3.7,4.2,9.9,5.2,14.7,2.3
		c3.2-1.9,5.4-5.2,5.7-8.9c0.4-3.6-0.9-6.8-4-10.2l-1.5-1.7h5.5V55.4h-22.1V40.5h12.7V31h9.5v-4.3h-9.5V17h-12.8V4.5H31.5v12.6H18.9
		v9.6H9.4v4.4h9.5v9.5h12.6v14.8h-3.1c-2,0-3.9,0-5.9,0c-3.9,0-8,0-12,0c-0.8,0-1,0.1-1,0.1c0,0-0.2,0.2-0.2,1v60.6h5l-1.1,1.6
		c-3.4,4.9-6.2,11.9-0.3,17.5c4.2,4,10.5,4.4,15.2,0.9c2.3-1.7,3.9-4.2,4.4-7c0.8-4.3-0.4-8.1-3.8-11.5L27,117h5.9V79H41v38.8h-2V81
		h-4.1v38h-3.3c2.8,3.5,3.7,7.3,2.9,11.6c-0.6,3.3-2.5,6.3-5.2,8.3C26.8,140.6,23.9,141.5,21,141.5z M21,135c-1.9,0-3.8-0.7-5.1-2.1
		c-1.4-1.4-2.2-3.2-2.2-5.2c0-2,0.7-3.8,2.1-5.2s3.2-2.2,5.2-2.2c0,0,0,0,0.1,0c1.9,0,3.8,0.7,5.1,2.1c1.4,1.4,2.2,3.2,2.2,5.2l0,0
		C28.4,131.7,25.2,135,21,135C21.1,135,21.1,135,21,135z M21,122.3C21,122.3,21,122.3,21,122.3c-1.5,0-2.8,0.6-3.8,1.6
		c-1,1-1.5,2.4-1.5,3.8c0,3,2.4,5.3,5.4,5.3c2.9,0,5.3-2.5,5.3-5.4C26.4,124.7,24,122.3,21,122.3z M123.1,135
		C123.1,135,123,135,123.1,135c-4.1,0-7.4-3.3-7.3-7.4c0-4,3.3-7.3,7.3-7.3c0,0,0,0,0,0c2,0,3.8,0.8,5.2,2.2
		c1.4,1.4,2.1,3.2,2.1,5.2C130.4,131.8,127.1,135,123.1,135z M116.7,127.6l1,0c0,3,2.4,5.4,5.3,5.4c0,0,0,0,0,0
		c2.9,0,5.3-2.4,5.4-5.3c0-1.4-0.5-2.8-1.5-3.8s-2.3-1.6-3.8-1.6c0,0,0,0,0,0c-2.9,0-5.3,2.4-5.3,5.3L116.7,127.6z M13.8,112.7V79.1
		h14.5v33.6L13.8,112.7z M15.8,81.1v29.6l10.5,0V81.1H15.8z M130.3,112.7l-14.5-0.1V79h14.5V112.7z M117.8,110.6l10.5,0V81h-10.5
		V110.6z M98.5,112.6H45.7V59.9h52.8V112.6z M47.7,110.6h48.8V61.9H47.7V110.6z M103,74.4V59.9h27.3v14.5L103,74.4z M105,61.9v10.5
		l23.3,0V61.9H105z M41.1,74.4H13.8V59.9h27.3V74.4z M15.8,72.4h23.3V61.9H15.8V72.4z M108,55.3H93.4V36.4H50.8v18.9H36V8.9h72V55.3
		z M95.4,53.3H106V10.9H38v42.4h10.8V34.4h46.7V53.3z M88.9,55.3H55.2V40.8h33.7V55.3z M57.2,53.3h29.7V42.8H57.2V53.3z M120.7,36.1
		h-8.1V21.5h8.1V36.1z M114.6,34.1h4.1V23.5h-4.1V34.1z M31.5,36.1h-8.1V21.5h8.1V36.1z M25.4,34.1h4.1V23.5h-4.1V34.1z"/>
</g>
<g>
	<path class="st0" d="M68.9,98.9v-6.1h6.2v6.1H68.9z"/>
	<path class="st0" d="M76.2,99.9H68v-8.1h8.2V99.9z M70,97.9h4.2v-4.1H70V97.9z"/>
</g>
<g>
	<path class="st0" d="M69,86.2V80h6.1v6.2H69z"/>
	<path class="st0" d="M76.1,87.2H68V79h8.1V87.2z M70,85.2h4.1V81H70V85.2z"/>
</g>
<g>
	<path class="st0" d="M68.8,73.4v-6.3h6.2v6.3H68.8z"/>
	<path class="st0" d="M76.1,74.4h-8.2v-8.3h8.2V74.4z M69.9,72.4h4.2v-4.3h-4.2V72.4z"/>
</g>
<g>
	<path class="st0" d="M88,28.8c-3.5,0-6.3-2.8-6.3-6.2c0,0,0,0,0-0.1c0-3.5,2.8-6.4,6.3-6.4c0,0,0,0,0,0c3.5,0.1,6.3,2.8,6.3,6.3
		C94.4,25.9,91.5,28.8,88,28.8C88,28.8,88,28.8,88,28.8z"/>
	<path class="st0" d="M88,29.8c-4,0-7.2-3.2-7.3-7.2c-0.1-4.1,3.2-7.4,7.3-7.5c4.1,0.1,7.3,3.3,7.4,7.3C95.4,26.5,92.1,29.8,88,29.8
		L88,29.8C88,29.8,88,29.8,88,29.8z M88,17.1c-2.9,0-5.3,2.5-5.3,5.4c0,3,2.4,5.3,5.3,5.3h0c2.9,0,5.3-2.4,5.3-5.4
		C93.3,19.5,90.9,17.2,88,17.1z"/>
</g>
<g>
	<path class="st0" d="M62.4,22.5c0.1,3.5-2.7,6.3-6.1,6.4c0,0,0,0-0.1,0c-3.5,0.1-6.4-2.7-6.5-6.2c0,0,0,0,0-0.1
		c0-3.5,2.9-6.4,6.4-6.4C59.6,16.2,62.4,19,62.4,22.5z"/>
	<path class="st0" d="M56.1,29.8c-1.9,0-3.7-0.7-5.1-2c-1.4-1.4-2.2-3.2-2.3-5.2l0-0.1c0-4,3.4-7.4,7.4-7.4c4,0.1,7.3,3.3,7.3,7.3
		c0.1,4-3.1,7.3-7.1,7.4C56.3,29.8,56.2,29.8,56.1,29.8z M56.1,17.1c-2.9,0-5.4,2.5-5.4,5.4c0,1.5,0.6,2.8,1.7,3.8
		c1,1,2.4,1.5,3.8,1.5c3-0.1,5.3-2.5,5.2-5.4v0C61.4,19.6,59,17.2,56.1,17.1z"/>
</g>
</svg>
