<svg id="Layer_1" data-name="Layer 1" xmlns="http://www.w3.org/2000/svg" viewBox="0 0 144 144"><defs><style>.cls-1{stroke:#fff;stroke-miterlimit:10;stroke-width:0.5px;}</style></defs><title>JJ-Icons-Marketing Services-v1</title><path class="cls-1" d="M5,96.08V7.65A3.5,3.5,0,0,1,8.37,6.11q63.64,0,127.28,0c2.66,0,3.33.67,3.33,3.32q0,42.45,0,84.89c0,2.68-.63,3.31-3.31,3.31H92.2c0,.34-.08.47-.08.6q0,12.88,0,25.77a2.35,2.35,0,0,0,2.67,2.66c3.31,0,6.63,0,9.94,0,2.21,0,3,.77,3,3,0,1.57,0,3.14,0,4.71,0,2.85-.63,3.48-3.44,3.48H39.4c-2.37,0-3.11-.75-3.12-3.14q0-2.49,0-5c0-2.32.76-3.07,3-3.07h9.29c2.57,0,3.27-.7,3.27-3.24q0-12.17,0-24.33V97.66c-4,0-7.86,0-11.69,0a3.23,3.23,0,0,0-2,.85c-5.31,5.23-10.56,10.53-15.84,15.79-1.6,1.6-2.63,1.59-4.22,0q-3.85-3.83-7.68-7.67c-2.06-2.06-2.06-2.84,0-4.87l4.15-4.15c-2.39,0-4.38-.06-6.38,0A3,3,0,0,1,5,96.08ZM49.1,71.95a30.44,30.44,0,1,1,48.36-2.7A29.53,29.53,0,0,1,79,81.84a29.87,29.87,0,0,1-26.36-6.4l-7.76,7.76c.29,1,1.11,1.13,2.18,1.13q38.45,0,76.91,0h1.54V19.66h-107V84.3h3.34c2,0,4.23.51,6-.19s2.93-2.64,4.36-4a2.11,2.11,0,0,1,.47-.45A18.29,18.29,0,0,1,36.36,78a5.8,5.8,0,0,1,5,1.68ZM23.31,89c-.27-.14-.34-.21-.41-.21l-5.62,0c-2.66,0-3.33-.67-3.33-3.32q0-33.48,0-67c0-2.74.66-3.4,3.39-3.4H126.68c2.73,0,3.39.66,3.39,3.41q0,33.42,0,66.84c0,2.82-.62,3.44-3.47,3.44H46.85l-2.95,4.36h90.51V10.67H9.55V93.2c3.06,0,6.06,0,9.06,0a1.51,1.51,0,0,0,.87-.47C20.73,91.51,22,90.28,23.31,89Zm17.53,44.37h62.31v-2.19c-2.66,0-5.23-.13-7.78,0-4.43.27-7.87-2.89-7.76-7.77.17-8.06,0-16.12,0-24.19V97.75H56.35c0,.59,0,1.11,0,1.62,0,8.19,0,16.39,0,24.58,0,4.35-2.79,7.14-7.07,7.2-1.87,0-3.75,0-5.62,0H40.84ZM72.27,78.18A25.84,25.84,0,0,0,98.18,52.51a26.15,26.15,0,0,0-26-26.27,25.8,25.8,0,0,0-25.9,25.68A26.13,26.13,0,0,0,72.27,78.18ZM20.33,110l8.31-8.31q6.28-6.28,12.55-12.57c1.26-1.27,1.26-2.06,0-3.33-.76-.78-1.54-1.54-2.31-2.31-1.61-1.6-2.31-1.61-3.9,0L15.25,103.26c-.3.3-.58.62-.81.87Z"/><path class="cls-1" d="M72.32,74.93A22.75,22.75,0,1,1,95,52.39,22.6,22.6,0,0,1,72.32,74.93Zm-5-28.63H89.6c-.74-1.4-1.38-2.57-2-3.77a2,2,0,0,0-2.16-1.23c-4.71.06-9.42,0-14.12,0H69.87V36.79H81.69c-5.68-3.92-14.1-3.72-19.85.29-6,4.15-9.09,11.7-7.47,18.24H78.94v4.45H55.77c4.57,10.39,17.33,12.91,24.12,8.8H65.76V64.18H82.54c4.21,0,4.23,0,6.1-3.79a17.7,17.7,0,0,0,1.8-9.6H67.32Z"/><path class="cls-1" d="M82.4,59.64V55.32h4.83v4.32Z"/><path class="cls-1" d="M62.2,46.46v4.25H57.34V46.46Z"/></svg>