<?xml version="1.0" encoding="utf-8"?>
<!-- Generator: Adobe Illustrator 22.1.0, SVG Export Plug-In . SVG Version: 6.00 Build 0)  -->
<svg version="1.1" id="Layer_1" xmlns="http://www.w3.org/2000/svg" xmlns:xlink="http://www.w3.org/1999/xlink" x="0px" y="0px"
	 viewBox="0 0 144 144" style="enable-background:new 0 0 144 144;" xml:space="preserve">
<style type="text/css">
	.st0{fill:#003359;}
</style>
<title>JJ-Icons-Marketing Services-v1</title>
<g>
	<path class="st0" d="M5,96.1V7.7c0.7-1.1,2-1.7,3.4-1.5c42.4,0,84.9,0,127.3,0c2.7,0,3.3,0.7,3.3,3.3c0,28.3,0,56.6,0,84.9
		c0,2.7-0.6,3.3-3.3,3.3H92.2c0,0.3-0.1,0.5-0.1,0.6c0,8.6,0,17.2,0,25.8c-0.2,1.3,0.7,2.5,2,2.7c0.2,0,0.5,0,0.7,0
		c3.3,0,6.6,0,9.9,0c2.2,0,3,0.8,3,3c0,1.6,0,3.1,0,4.7c0,2.9-0.6,3.5-3.4,3.5H39.4c-2.4,0-3.1-0.8-3.1-3.1c0-1.7,0-3.3,0-5
		c0-2.3,0.8-3.1,3-3.1h9.3c2.6,0,3.3-0.7,3.3-3.2c0-8.1,0-16.2,0-24.3v-1.4c-4,0-7.9,0-11.7,0c-0.7,0-1.5,0.3-2,0.8
		c-5.3,5.2-10.6,10.5-15.8,15.8c-1.6,1.6-2.6,1.6-4.2,0c-2.6-2.6-5.1-5.1-7.7-7.7c-2.1-2.1-2.1-2.8,0-4.9l4.1-4.2
		c-2.4,0-4.4-0.1-6.4,0C6.9,97.8,5.6,97.2,5,96.1z M49.1,71.9c-10.9-12.8-9.4-32,3.4-42.9s32-9.4,42.9,3.4
		c8.9,10.4,9.7,25.5,2.1,36.8c-4.3,6.5-10.9,11-18.5,12.6c-9.3,2.2-19.1-0.2-26.4-6.4l-7.8,7.8c0.3,1,1.1,1.1,2.2,1.1
		c25.6,0,51.3,0,76.9,0h1.5V19.7h-107v64.6h3.3c2,0,4.2,0.5,6-0.2s2.9-2.6,4.4-4c0.1-0.2,0.3-0.3,0.5-0.4c1.2-0.7,2.4-1.2,3.7-1.7
		c1.8-0.3,3.7,0.4,5,1.7L49.1,71.9z M23.3,89c-0.3-0.1-0.3-0.2-0.4-0.2h-5.6c-2.7,0-3.3-0.7-3.3-3.3c0-22.3,0-44.7,0-67
		c0-2.7,0.7-3.4,3.4-3.4h109.3c2.7,0,3.4,0.7,3.4,3.4c0,22.3,0,44.6,0,66.8c0,2.8-0.6,3.4-3.5,3.4H46.8l-3,4.4h90.5V10.7H9.6v82.5
		c3.1,0,6.1,0,9.1,0c0.3-0.1,0.6-0.2,0.9-0.5C20.7,91.5,22,90.3,23.3,89z M40.8,133.4h62.3v-2.2c-2.7,0-5.2-0.1-7.8,0
		c-4.4,0.3-7.9-2.9-7.8-7.8c0.2-8.1,0-16.1,0-24.2v-1.5H56.3c0,0.6,0,1.1,0,1.6c0,8.2,0,16.4,0,24.6c0,4.3-2.8,7.1-7.1,7.2
		c-1.9,0-3.8,0-5.6,0h-2.8V133.4z M72.3,78.2c14.2,0,25.8-11.4,25.9-25.7c0.1-14.4-11.6-26.2-26-26.3c-14.2-0.1-25.8,11.4-25.9,25.7
		C46.2,66.3,57.8,78.1,72.3,78.2z M20.3,110l8.3-8.3c4.2-4.2,8.4-8.4,12.5-12.6c1.3-1.3,1.3-2.1,0-3.3c-0.8-0.8-1.5-1.5-2.3-2.3
		c-1.6-1.6-2.3-1.6-3.9,0l-19.7,19.8c-0.3,0.3-0.6,0.6-0.8,0.9L20.3,110z"/>
	<path class="st0" d="M104.3,138.1H39.4c-2.5,0-3.4-0.9-3.4-3.4v-5c0-2.5,0.9-3.3,3.3-3.3h9.3c2.4,0,3-0.6,3-3V97.9H40.1
		c-0.7,0-1.3,0.3-1.8,0.8c-3.4,3.4-6.9,6.9-10.3,10.2c-1.8,1.8-3.7,3.7-5.5,5.5c-1.7,1.7-2.9,1.7-4.6,0c-2.6-2.6-5.1-5.1-7.7-7.7
		c-1-1-1.6-1.8-1.6-2.6c0-0.8,0.6-1.6,1.6-2.6l3.7-3.7c-0.6,0-1.2,0-1.8,0c-1.4,0-2.7,0-4,0c-1.3,0.2-2.7-0.4-3.4-1.7l0-0.1V7.6
		l0-0.1C5.6,6.3,7,5.7,8.4,5.9l127.2,0c2.8,0,3.6,0.8,3.6,3.6v84.9c0,2.8-0.7,3.6-3.6,3.6H92.4c0,0.1,0,0.2,0,0.2c0,0,0,0.1,0,0.1
		V124c-0.1,0.6,0.1,1.1,0.4,1.6c0.3,0.5,0.8,0.7,1.4,0.8c0.2,0,0.4,0,0.6,0l10,0c2.4,0,3.3,0.9,3.3,3.3v4.7
		C108,137.4,107.3,138.1,104.3,138.1z M39.3,126.9c-2.1,0-2.8,0.7-2.8,2.8v5c0,2.2,0.7,2.9,2.9,2.9h64.9c2.7,0,3.2-0.5,3.2-3.2v-4.7
		c0-2.1-0.7-2.8-2.8-2.8h-9.9c-0.2,0-0.5,0-0.7,0c-0.7-0.1-1.3-0.5-1.7-1s-0.6-1.2-0.5-1.9l0-25.7c0-0.1,0-0.1,0-0.2
		c0-0.1,0-0.2,0-0.4v-0.3h43.7c2.5,0,3.1-0.5,3.1-3.1V9.4c0-2.5-0.5-3.1-3.1-3.1H8.4C7.1,6.2,5.9,6.7,5.3,7.7V96
		c0.6,1,1.7,1.6,2.9,1.3c1.3,0,2.7,0,4.1,0c0.7,0,1.5,0,2.4,0h0.6l-4.6,4.6c-1.1,1-1.5,1.7-1.5,2.2c0,0.6,0.4,1.2,1.5,2.3
		c2.6,2.6,5.1,5.1,7.7,7.7c1.5,1.5,2.4,1.5,3.9,0c1.9-1.8,3.7-3.7,5.5-5.5c3.4-3.4,6.8-6.9,10.3-10.3c0.6-0.5,1.4-0.9,2.2-0.9h12v26
		c0,2.7-0.8,3.5-3.5,3.5H39.3z M103.4,133.6H40.6v-2.7h8.7c4.1-0.1,6.8-2.8,6.8-7V97.5h31.8v1.7c0,2.7,0,5.4,0,8.1
		c0,5.3,0.1,10.8,0,16.1c-0.1,2.3,0.7,4.3,2.1,5.7c1.4,1.3,3.3,2,5.4,1.9c1.7-0.1,3.4-0.1,5.1,0c0.9,0,1.8,0,2.7,0h0.3V133.6z
		 M41.1,133.1h61.8v-1.7c-0.8,0-1.6,0-2.4,0c-1.8,0-3.4-0.1-5.1,0c-2.2,0.1-4.3-0.6-5.7-2c-1.5-1.5-2.3-3.6-2.3-6
		c0.1-5.4,0.1-10.8,0-16.1c0-2.7,0-5.4,0-8.1V98H56.6v26c0,4.5-2.9,7.4-7.3,7.5h-8.2V133.1z M20.3,110.4l-6.2-6.2l0.4-0.4
		c0.2-0.2,0.4-0.4,0.6-0.7l19.7-19.8c0.8-0.8,1.4-1.3,2.1-1.3c0,0,0,0,0,0c0.7,0,1.4,0.5,2.1,1.3l0.8,0.8c0.5,0.5,1,1,1.6,1.6
		c1.3,1.4,1.3,2.3,0,3.7c-4.2,4.2-8.4,8.4-12.6,12.6L20.3,110.4z M14.8,104.1l5.5,5.5l8.1-8.1c4.2-4.2,8.4-8.4,12.5-12.6
		c1.2-1.2,1.2-1.8,0-3c-0.5-0.5-1-1-1.5-1.6l-0.8-0.8c-0.8-0.8-1.3-1.1-1.8-1.1c0,0,0,0,0,0c-0.5,0-1,0.3-1.8,1.1l-19.7,19.8
		C15.2,103.7,15,103.9,14.8,104.1L14.8,104.1z M9.5,93.5H9.3v-83h125.4v83H43.4l3.3-4.9h79.9c2.7,0,3.2-0.5,3.2-3.2V18.5
		c0-2.6-0.6-3.2-3.1-3.2H17.3c-2.6,0-3.1,0.6-3.1,3.2v67c0,2.5,0.5,3.1,3.1,3.1h5.6c0.1,0,0.2,0,0.3,0.1c0.1,0,0.1,0.1,0.2,0.1
		l0.3,0.2l-0.2,0.2c-0.7,0.7-1.4,1.3-2,2l-1.8,1.7c-0.3,0.3-0.6,0.5-1,0.5L9.5,93.5z M9.8,93h8.8c0.2,0,0.5-0.2,0.7-0.4l1.8-1.8
		c0.6-0.6,1.2-1.2,1.8-1.8c0,0,0,0,0,0l-5.6,0c-2.8,0-3.6-0.8-3.6-3.6v-67c0-2.9,0.8-3.7,3.6-3.7h109.3c2.9,0,3.6,0.8,3.6,3.7v66.8
		c0,3-0.7,3.7-3.7,3.7H47l-2.6,3.9h89.8v-82H9.8V93z M25.5,84.7c-0.6,0-1.2,0-1.9-0.1c-0.6,0-1.2-0.1-1.8-0.1h-3.6V19.4h107.5v65.2
		H47.1c-1,0-2.1-0.1-2.4-1.3l0-0.1l8-8l0.2,0.2c7.2,6.2,16.9,8.5,26.1,6.3c7.6-1.6,14.1-6,18.3-12.5c7.6-11.2,6.8-26.2-2-36.5
		c-5.2-6.1-12.5-9.9-20.6-10.5c-8-0.6-15.8,1.9-22,7.1c-6.1,5.2-9.9,12.5-10.5,20.6s1.9,15.8,7.1,22l0.2,0.2L41.4,80l-0.2-0.2
		c-1.2-1.3-3-1.9-4.8-1.6c-1.2,0.4-2.4,1-3.6,1.6c-0.1,0.1-0.3,0.2-0.4,0.4c-0.5,0.4-0.9,0.9-1.3,1.4c-0.9,1.1-1.9,2.2-3.2,2.7
		C27.2,84.6,26.4,84.7,25.5,84.7z M18.8,84h3.1c0.6,0,1.2,0,1.8,0.1c1.4,0.1,2.9,0.2,4.1-0.3c1.2-0.5,2.1-1.5,3-2.5
		c0.4-0.5,0.9-1,1.3-1.4c0.1-0.2,0.3-0.3,0.5-0.5c1.2-0.7,2.4-1.3,3.7-1.7c1.9-0.3,3.7,0.3,5.1,1.6l7.4-7.4
		c-5.2-6.2-7.7-14.1-7.1-22.2c0.6-8.2,4.4-15.6,10.7-20.9c6.2-5.3,14.2-7.9,22.3-7.3c8.2,0.6,15.6,4.4,20.9,10.7
		c8.9,10.5,9.8,25.7,2.1,37.1c-4.3,6.5-10.9,11.1-18.6,12.7c-9.3,2.2-19.1-0.2-26.4-6.3l-7.5,7.5c0.3,0.7,0.9,0.8,1.9,0.8h78.2V19.9
		H18.8V84z M72.3,78.4C72.3,78.4,72.3,78.4,72.3,78.4L72.3,78.4C57.7,78.4,46,66.5,46,51.9C46.1,37.6,57.8,26,72.1,26
		c0,0,0.1,0,0.1,0c14.5,0.1,26.3,12,26.2,26.5C98.3,66.8,86.6,78.4,72.3,78.4z M72.3,77.9C72.3,77.9,72.3,77.9,72.3,77.9
		c14.1,0,25.6-11.4,25.7-25.4c0.1-14.3-11.5-25.9-25.8-26c0,0-0.1,0-0.1,0c-14,0-25.5,11.4-25.5,25.4C46.5,66.2,58,77.9,72.3,77.9
		L72.3,77.9z"/>
</g>
<g>
	<path class="st0" d="M72.3,74.9c-12.6,0-22.8-10.1-22.8-22.7c0-12.6,10.1-22.8,22.7-22.8C84.7,29.4,95,39.5,95,52.1
		c0,0.1,0,0.2,0,0.3C95,64.9,84.8,75,72.3,74.9C72.3,74.9,72.3,74.9,72.3,74.9z M67.3,46.3h22.3c-0.7-1.4-1.4-2.6-2-3.8
		c-0.3-0.9-1.2-1.4-2.2-1.2c-4.7,0.1-9.4,0-14.1,0h-1.4v-4.5h11.8c-5.7-3.9-14.1-3.7-19.8,0.3c-6,4.2-9.1,11.7-7.5,18.2h24.6v4.5
		H55.8c4.6,10.4,17.3,12.9,24.1,8.8H65.8v-4.4h16.8c4.2,0,4.2,0,6.1-3.8c1.5-3,2.1-6.3,1.8-9.6H67.3V46.3z"/>
	<path class="st0" d="M72.2,75.2c-6.1,0-11.9-2.4-16.2-6.7c-4.4-4.3-6.8-10.1-6.8-16.2c0-6.1,2.4-11.9,6.7-16.3
		c4.3-4.4,10.1-6.8,16.2-6.8c0,0,0,0,0.1,0c6.1,0,11.9,2.4,16.2,6.7c4.4,4.3,6.8,10.1,6.8,16.2l0,0.3C95.2,65,85,75.2,72.4,75.2
		C72.4,75.2,72.4,75.2,72.2,75.2l0.1-0.3L72.2,75.2C72.3,75.2,72.3,75.2,72.2,75.2z M72.3,29.7C72.2,29.7,72.2,29.7,72.3,29.7
		c-6.1,0-11.7,2.4-16,6.6s-6.6,9.9-6.5,15.9c0,6,2.4,11.7,6.6,15.9c4.2,4.2,9.9,6.5,15.9,6.5c0,0,0,0,0.1,0h0c0,0,0,0,0.1,0
		c12.3,0,22.3-10,22.3-22.3l0-0.3c0-6-2.4-11.7-6.6-15.9C83.9,32,78.2,29.7,72.3,29.7z M72.5,70.7c-1.9,0-3.8-0.3-5.7-0.9
		c-5.1-1.6-9.1-5.1-11.2-9.9l-0.2-0.4h23.3v-4H54.2l0-0.2c-1.7-6.7,1.5-14.3,7.6-18.5c5.9-4.1,14.4-4.3,20.1-0.3l0.7,0.5H70.1v4h1.2
		c1.6,0,3.1,0,4.7,0c3.1,0,6.3,0,9.4,0c1-0.2,2,0.4,2.4,1.4c0.4,0.7,0.7,1.4,1.1,2.2c0.3,0.5,0.5,1,0.8,1.6l0.2,0.4H67.6v4h23.1
		l0,0.2c0.3,3.4-0.3,6.7-1.8,9.7c-1.9,3.9-2,3.9-6.3,3.9H66v3.9h14.8L80,68.8C77.9,70,75.3,70.7,72.5,70.7z M65.5,68.8
		c0.5,0.2,0.9,0.4,1.4,0.5c4.2,1.3,8.7,1.1,12-0.5H65.5z M56.2,60c1.9,4,5.2,7.1,9.4,8.8v-4.9h17c4.1,0,4.1,0,5.9-3.7
		c1.4-2.9,2.1-6.1,1.8-9.2H67.1v-5h22.1c-0.2-0.4-0.4-0.8-0.6-1.2c-0.4-0.8-0.8-1.5-1.2-2.2c-0.3-0.8-1.1-1.2-1.9-1.1
		c-3.2,0-6.4,0-9.5,0c-1.6,0-3.1,0-4.7,0h-1.7v-5h11.2c-5.6-3.4-13.3-3.1-18.9,0.7c-5.9,4.1-8.9,11.4-7.4,17.8h24.6v5H56.2z"/>
</g>
<g>
	<path class="st0" d="M82.4,59.6v-4.3h4.8v4.3H82.4z"/>
	<path class="st0" d="M87.5,59.9h-5.3v-4.8h5.3V59.9z M82.7,59.4H87v-3.8h-4.3V59.4z"/>
</g>
<g>
	<path class="st0" d="M62.2,46.5v4.3h-4.9v-4.3H62.2z"/>
	<path class="st0" d="M62.5,51h-5.4v-4.8h5.4V51z M57.6,50.5H62v-3.8h-4.4V50.5z"/>
</g>
</svg>
