<?xml version="1.0" encoding="utf-8"?>
<!-- Generator: Adobe Illustrator 22.1.0, SVG Export Plug-In . SVG Version: 6.00 Build 0)  -->
<svg version="1.1" id="Layer_1" xmlns="http://www.w3.org/2000/svg" xmlns:xlink="http://www.w3.org/1999/xlink" x="0px" y="0px"
	 viewBox="0 0 144 144" style="enable-background:new 0 0 144 144;" xml:space="preserve">
<style type="text/css">
	.st0{fill:#003359;}
</style>
<title>JJ-Icons-Marketing Services-v1</title>
<g>
	<path class="st0" d="M64,3.7c1.5,0.5,2.5,2,2.3,3.6c0,7.1,0,14.2,0,21.3c0,2.5-1.4,3.8-3.4,3.4c-1-0.2-1.9-1-2.1-2
		c-0.1-0.5-0.2-1-0.2-1.6c0-7,0-14,0-21c0-1.8,0.6-3.1,2.3-3.7L64,3.7z"/>
	<path class="st0" d="M63.6,32.3c-0.2,0-0.5,0-0.7-0.1c-1.1-0.2-2-1.1-2.3-2.2c-0.1-0.5-0.2-1.1-0.2-1.6v-21c0-2.1,0.8-3.4,2.5-4
		l0.1,0l1.1,0l0,0c1.7,0.5,2.7,2.1,2.5,3.9l0,21.3c0,1.4-0.4,2.5-1.2,3.1C64.9,32.1,64.3,32.3,63.6,32.3z M63,4
		c-1.5,0.5-2.1,1.6-2.1,3.5v21c0,0.5,0.1,1,0.2,1.5c0.2,0.9,0.9,1.7,1.9,1.8c0.8,0.2,1.6,0,2.1-0.4c0.7-0.5,1-1.5,1-2.8V7.3
		c0.2-1.5-0.7-2.9-2.1-3.3L63,4z"/>
</g>
<g>
	<path class="st0" d="M60.6,94.7c0-13.7,0-27.5,0-41.2c0-0.4,0-0.9,0-1.3c0-1.6,1.2-2.9,2.8-3c0.8,0,1.5,0.3,2,0.8l6.5,5.3
		l55.3,45.3c0.3,0.2,0.6,0.4,0.8,0.7c1.1,1.1,1.1,2.9,0,4c-0.5,0.5-1.1,0.8-1.8,0.8c-0.4,0-0.9,0-1.3,0c-11.9,0-23.8,0-35.7,0
		c-0.9-0.1-1.7,0.4-2.1,1.1c-6.8,10.3-13.7,20.6-20.6,30.8c-0.3,0.5-0.6,0.9-0.9,1.3c-1,1.1-2.8,1.2-3.9,0.2
		c-0.4-0.4-0.7-0.9-0.8-1.5c-0.1-0.6-0.1-1.2-0.1-1.9C60.6,122.4,60.6,108.6,60.6,94.7z M117.6,100.5l0.2-0.3l-51.4-42v69.6
		c0.4-0.6,0.7-1,1-1.4c5.3-7.9,10.6-15.9,15.9-23.9c0.8-1.4,2.4-2.2,4-2.1c9.7,0.1,19.3,0,28.9,0L117.6,100.5z"/>
	<path class="st0" d="M63.5,140.5c-0.8,0-1.5-0.3-2-0.8c-0.5-0.4-0.8-1-0.9-1.6c-0.1-0.6-0.1-1.3-0.1-1.9c0-13.8,0-27.7,0-41.5V52.2
		c0-0.8,0.3-1.6,0.8-2.2c0.6-0.6,1.3-1,2.2-1c0.8,0,1.6,0.3,2.2,0.8l6.5,5.3l55.3,45.3c0.3,0.2,0.6,0.5,0.8,0.7
		c1.2,1.2,1.2,3.2,0,4.4c-0.5,0.5-1.2,0.9-2,0.9l-37.1,0c-0.8-0.1-1.5,0.3-1.9,1c-6.8,10.3-13.7,20.7-20.6,30.9
		c-0.3,0.5-0.6,0.9-1,1.3c-0.6,0.6-1.3,0.9-2.1,1C63.5,140.5,63.5,140.5,63.5,140.5z M63.5,49.5C63.4,49.5,63.4,49.5,63.5,49.5
		c-0.8,0-1.4,0.3-1.9,0.8c-0.5,0.5-0.7,1.2-0.7,1.9v42.5c0,13.8,0,27.7,0,41.5c0,0.6,0,1.2,0.1,1.8c0.1,0.5,0.4,1,0.8,1.3
		c0.5,0.5,1.1,0.7,1.8,0.7c0.7,0,1.3-0.3,1.8-0.8c0.3-0.4,0.6-0.8,0.9-1.3c6.8-10.2,13.8-20.6,20.6-30.8c0.5-0.8,1.4-1.3,2.4-1.2
		l37,0c0.6,0,1.2-0.3,1.7-0.8c1-1,1-2.7,0-3.7c-0.2-0.2-0.5-0.5-0.8-0.7L65.2,50.2C64.7,49.7,64.1,49.5,63.5,49.5z M66.1,128.6V57.7
		l51.9,42.5l-0.3,0.6l-1.5,0c-3.2,0-6.4,0-9.6,0c-6.3,0-12.9,0-19.3,0c-1.5-0.1-3,0.7-3.8,2c-3.9,5.9-7.8,11.8-11.7,17.6l-4.2,6.3
		c-0.2,0.3-0.4,0.5-0.7,0.9L66.1,128.6z M66.6,58.7V127c0.2-0.3,0.4-0.5,0.6-0.7l4.2-6.3c3.8-5.7,7.8-11.7,11.7-17.5
		c0.9-1.5,2.5-2.4,4.2-2.2c6.4,0,13,0,19.3,0c3.2,0,6.4,0,9.7,0l1.2,0L66.6,58.7z"/>
</g>
<g>
	<path class="st0" d="M50.2,68.7c-0.3,0.7-0.7,1.3-1.2,1.8C43.9,75.7,38.7,80.9,33.6,86c-1.4,1.4-3.2,1.5-4.4,0.3s-1-2.9,0.4-4.3
		c5.1-5.2,10.3-10.3,15.4-15.5c0.8-1,2.2-1.4,3.4-0.9C49.5,66.1,50.1,67,50.2,68.7z"/>
	<path class="st0" d="M31.2,87.4C31.1,87.4,31.1,87.4,31.2,87.4c-0.8,0-1.5-0.3-2.1-1c-1.2-1.3-1.1-3.1,0.4-4.6
		c5.1-5.2,10.3-10.4,15.4-15.5c0.8-1.1,2.3-1.5,3.6-1c1.3,0.5,1.9,1.6,1.9,3.3l0,0.1l0,0.1c-0.3,0.7-0.7,1.3-1.2,1.9
		C44.1,75.8,38.9,81,33.7,86.2C33,86.9,32.1,87.4,31.2,87.4z M47.3,65.6c-0.8,0-1.6,0.4-2.1,1C40.1,71.8,34.9,77,29.7,82.2
		c-1.3,1.3-1.4,2.8-0.4,3.9c0.5,0.5,1.1,0.8,1.7,0.8c0,0,0,0,0,0c0.8,0,1.6-0.4,2.2-1c5.2-5.1,10.4-10.4,15.4-15.5
		c0.4-0.5,0.8-1.1,1.1-1.7c0-1.5-0.5-2.3-1.6-2.8C48,65.7,47.6,65.6,47.3,65.6z"/>
</g>
<g>
	<path class="st0" d="M50.1,35.5c0,2.7-2.3,4-4.1,3c-0.5-0.3-0.9-0.6-1.2-1c-5-5-10-10-15-15c-0.5-0.4-0.9-1-1.2-1.6
		c-0.4-1.1-0.1-2.3,0.7-3c0.8-0.8,2.1-1,3.1-0.5c0.5,0.3,1,0.6,1.3,1.1c5,5,10,10,15,15C49.3,34.1,49.8,34.8,50.1,35.5z"/>
	<path class="st0" d="M47.3,39c-0.5,0-0.9-0.1-1.4-0.4c-0.5-0.3-0.9-0.6-1.3-1c-5-5-10-10-15-15c-0.5-0.5-0.9-1-1.2-1.7
		c-0.5-1.2-0.2-2.5,0.8-3.3c0.9-0.9,2.3-1.1,3.4-0.5c0.5,0.3,1,0.7,1.4,1.1l15,15c0.6,0.6,1,1.3,1.4,2l0,0.1c0,1.4-0.6,2.6-1.6,3.2
		C48.3,38.9,47.8,39,47.3,39z M31.2,17.4c-0.6,0-1.2,0.2-1.7,0.7c-0.8,0.7-1.1,1.8-0.7,2.7c0.3,0.6,0.6,1.1,1.1,1.5c5,5,10,10,15,15
		c0.4,0.4,0.8,0.7,1.2,1c0.7,0.4,1.6,0.4,2.3,0c0.9-0.5,1.4-1.5,1.4-2.7c-0.4-0.7-0.8-1.3-1.3-1.9l-15-15c-0.4-0.4-0.8-0.7-1.3-1
		C31.9,17.4,31.6,17.4,31.2,17.4z"/>
</g>
<g>
	<path class="st0" d="M98.4,20.4c-0.3,0.7-0.7,1.3-1.2,1.8C92.2,27.4,87,32.6,81.9,37.7c-1.4,1.4-3.2,1.5-4.4,0.2s-1-2.9,0.4-4.3
		c5.1-5.2,10.3-10.3,15.4-15.5c0.8-1,2.2-1.4,3.4-0.9C97.8,17.8,98.4,18.6,98.4,20.4z"/>
	<path class="st0" d="M79.5,39C79.4,39,79.4,39,79.5,39c-0.8,0-1.6-0.3-2.1-1c-1.3-1.3-1.1-3.1,0.4-4.6C82.8,28.4,88,23.2,93.1,18
		c0.8-1.1,2.3-1.5,3.6-1c1.3,0.6,1.9,1.6,1.9,3.3l0,0.1l0,0.1c-0.3,0.7-0.7,1.3-1.2,1.9C92.4,27.5,87.2,32.8,82,37.8
		C81.3,38.6,80.4,39,79.5,39z M95.6,17.3c-0.8,0-1.6,0.4-2.1,1C88.3,23.5,83.1,28.7,78,33.8c-1.3,1.3-1.4,2.8-0.4,3.9
		c0.5,0.5,1.1,0.8,1.7,0.8c0,0,0,0,0,0c0.8,0,1.5-0.4,2.2-1C86.8,32.4,92,27.2,97.1,22c0.4-0.5,0.8-1.1,1.1-1.7
		c0-1.5-0.5-2.3-1.6-2.8C96.3,17.4,95.9,17.3,95.6,17.3z"/>
</g>
<g>
	<path class="st0" d="M29.3,54.9c-3.5,0-7,0-10.5,0c-0.6,0-1.2-0.1-1.8-0.2c-1.2-0.4-2-1.6-1.8-2.9c0.1-1.2,1.1-2.2,2.3-2.4
		c0.4-0.1,0.7-0.1,1.1-0.1c7.2,0,14.4,0,21.6,0c1.9,0,3,0.8,3.3,2.2c0.4,1.9-1,3.4-3.2,3.4C36.6,54.9,32.9,54.9,29.3,54.9z"/>
	<path class="st0" d="M36.6,55.2c-1.2,0-2.4,0-3.6,0c-1.2,0-2.4,0-3.6,0H18.8c-0.6,0-1.3-0.1-1.9-0.2c-1.4-0.4-2.2-1.8-2-3.2
		c0.1-1.3,1.2-2.4,2.5-2.6c0.4-0.1,0.7-0.1,1.1-0.1h21.6c2.5,0,3.3,1.3,3.6,2.4c0.2,0.9,0,1.8-0.6,2.5c-0.6,0.8-1.7,1.2-2.9,1.2
		C39,55.2,37.8,55.2,36.6,55.2z M29.3,54.7c1.2,0,2.4,0,3.6,0c2.4,0,4.9,0,7.3,0c1.1,0,1.9-0.4,2.5-1c0.5-0.6,0.6-1.3,0.5-2.1
		c-0.3-1.3-1.3-2-3.1-2H18.5c-0.3,0-0.7,0-1,0.1c-1.1,0.2-2,1.1-2.1,2.2c-0.2,1.2,0.5,2.3,1.6,2.7c0.6,0.2,1.2,0.2,1.7,0.2H29.3z"/>
</g>
<g>
	<path class="st0" d="M97.6,54.9c-3.5,0-7,0-10.5,0c-0.6,0-1.2-0.1-1.8-0.2c-1.2-0.4-2-1.6-1.8-2.9c0.1-1.2,1.1-2.2,2.3-2.4
		c0.5-0.1,1-0.1,1.5-0.1H108c0.5,0,1,0,1.5,0.1c1.3,0.2,2.3,1.2,2.3,2.5c0.1,1.3-0.7,2.5-1.9,2.8c-0.6,0.1-1.1,0.2-1.7,0.2
		C104.6,54.9,101.1,54.9,97.6,54.9z"/>
	<path class="st0" d="M108.3,55.2c-0.1,0-0.1,0-0.2,0c-1.7,0-3.5,0-5.2,0c-1.8,0-3.5,0-5.3,0H87.1c-0.6,0-1.3-0.1-1.9-0.2
		c-1.4-0.4-2.2-1.8-2-3.2c0.1-1.3,1.2-2.4,2.5-2.6c0.5-0.1,1-0.1,1.5-0.1H108c0.5,0,1,0,1.5,0.1c1.4,0.2,2.5,1.4,2.5,2.8
		c0.1,1.4-0.7,2.7-2.1,3.1C109.4,55.1,108.8,55.2,108.3,55.2z M97.6,54.7c1.8,0,3.5,0,5.3,0c1.8,0,3.6,0,5.4,0c0.5,0,1-0.1,1.5-0.2
		c1.1-0.3,1.9-1.4,1.7-2.6c-0.1-1.2-0.9-2.2-2.1-2.3c-0.5-0.1-0.9-0.1-1.4-0.1H87.2c-0.5,0-1,0-1.4,0.1c-1.1,0.2-2,1.1-2.1,2.2
		c-0.2,1.2,0.5,2.3,1.6,2.7c0.6,0.2,1.2,0.2,1.7,0.2H97.6z"/>
</g>
</svg>
