<?xml version="1.0" encoding="utf-8"?>
<!-- Generator: Adobe Illustrator 22.1.0, SVG Export Plug-In . SVG Version: 6.00 Build 0)  -->
<svg version="1.1" id="Layer_1" xmlns="http://www.w3.org/2000/svg" xmlns:xlink="http://www.w3.org/1999/xlink" x="0px" y="0px"
	 viewBox="0 0 144 144" style="enable-background:new 0 0 144 144;" xml:space="preserve">
<style type="text/css">
	.st0{fill:#003359;}
</style>
<title>JJ-Icons-Marketing Services-v1</title>
<g>
	<path class="st0" d="M50.2,112.2h-1.8c-11.2,0-22.3,0-33.5,0c-5.1,0-8.9-2.1-11.2-6.7c-0.5-1.2-0.9-2.4-1.2-3.7V42.4
		c0.8-1.9,1.3-4,2.4-5.6c2.4-3.5,6-5,10.2-5h74.7c5.2,0,9.2,2.1,11.4,6.8c0.8,1.9,1.2,3.9,1.3,6c0.2,6.2,0.1,12.4,0.1,18.6
		c0,0.5,0,1,0,1.8c0.6-0.5,1-0.8,1.3-1.1c8.7-8,17.3-16,25.9-24c1.9-1.8,4.1-2.7,6.7-2.1c3.1,0.7,5.2,3.5,5.1,6.7c0,5.7,0,11.3,0,17
		c0,13.3,0,26.6,0,39.9c0.2,3.7-2.6,6.8-6.3,7c-0.4,0-0.9,0-1.3-0.1c-1.7-0.3-3.2-1.1-4.3-2.4l-25.7-24.5c-0.3-0.3-0.7-0.7-1.4-1.3
		c0,0.8,0,1.3,0,1.7c0,5.8,0,11.5,0,17.2c0,6.4-3.5,11-9.4,12.7c-1.4,0.3-2.8,0.5-4.2,0.4c-9.8,0-19.5,0-29.3,0h-1.7 M52,107.3
		c12.4,0,24.8,0,37.2,0c5.2,0,8.3-3.1,8.3-8.4c0-18.1,0-36.3,0-54.4c0-5-2.9-7.9-7.9-7.9H15.3c-5,0-7.9,2.9-7.9,7.9
		c0,18.4,0,36.8,0,55.2c0,0.7,0,1.5,0.2,2.2c0.7,3.4,3.4,5.3,7.3,5.4C27.3,107.4,39.6,107.4,52,107.3z M136.6,73.2
		c0-9.2,0-18.5,0-27.7c0-0.4,0-0.9,0-1.3c-0.1-1-1-1.6-2-1.5c-0.3,0-0.6,0.2-0.8,0.3c-0.3,0.2-0.6,0.5-0.9,0.8l-29.2,27
		c-1.5,1.4-1.5,2.3-0.1,3.7c5.5,5.2,10.9,10.4,16.4,15.7c4.4,4.2,8.8,8.4,13.1,12.6c0.9,0.8,1.9,1.4,2.8,0.4
		c0.5-0.6,0.7-1.3,0.7-2.1C136.6,91.7,136.6,82.4,136.6,73.2L136.6,73.2z"/>
	<path class="st0" d="M50.2,112.5H14.9c-5.3,0-9.1-2.3-11.4-6.8c-0.5-1.2-0.9-2.5-1.2-3.8l0-59.6l0,0c0.2-0.6,0.5-1.2,0.7-1.8
		c0.5-1.3,1-2.7,1.8-3.9c2.3-3.3,5.9-5.1,10.4-5.1h74.7c5.5,0,9.5,2.3,11.6,7c0.8,1.9,1.3,4,1.3,6.1c0.1,4.5,0.1,9,0.1,13.4
		c0,1.7,0,3.4,0,5.2v1.3c0,0,0.1-0.1,0.1-0.1c0.3-0.3,0.6-0.5,0.8-0.7c8.7-8,17.3-16,25.9-24c2.2-2,4.4-2.7,6.9-2.1
		c3.2,0.7,5.4,3.7,5.3,6.9v56.9c0.2,3.8-2.7,7.1-6.6,7.3c-0.5,0-0.9,0-1.4-0.1c-1.7-0.3-3.3-1.2-4.4-2.5l-25.7-24.5
		c-0.2-0.2-0.4-0.4-0.7-0.6c-0.1-0.1-0.2-0.1-0.3-0.2v18.4c0,6.5-3.5,11.2-9.6,12.9c-1.4,0.3-2.8,0.5-4.2,0.5h-31V112h31
		c1.4,0,2.8-0.1,4.1-0.4c5.9-1.7,9.2-6.2,9.2-12.4V79.6l0.4,0.4c0.3,0.2,0.5,0.4,0.7,0.6c0.3,0.3,0.5,0.5,0.7,0.7l25.7,24.5
		c1.1,1.2,2.6,2,4.2,2.3c0.4,0.1,0.9,0.1,1.3,0.1c1.7-0.1,3.3-0.8,4.4-2.1s1.7-2.9,1.6-4.6V44.5c0.1-3-2-5.7-4.9-6.4
		c-2.3-0.6-4.4,0.1-6.4,2c-8.6,8-17.3,16-25.9,24c-0.2,0.2-0.5,0.4-0.8,0.7c-0.2,0.1-0.3,0.3-0.5,0.4l-0.4,0.3v-2.4
		c0-1.7,0-3.4,0-5.2c0-4.4,0-8.9-0.1-13.4c0-2-0.4-4-1.2-5.9c-2.1-4.4-5.8-6.7-11.2-6.7H15.1c-4.4,0-7.7,1.6-10,4.9
		c-0.8,1.1-1.3,2.5-1.7,3.8c-0.2,0.6-0.4,1.2-0.7,1.8v59.4c0.3,1.2,0.7,2.4,1.2,3.6c2.2,4.3,5.9,6.5,11,6.5h35.3V112.5z M14.9,107.6
		c-4,0-6.8-2-7.5-5.6c-0.1-0.7-0.2-1.5-0.2-2.2V44.6c0-5.1,3-8.2,8.1-8.2h74.3c5.2,0,8.2,3,8.2,8.1V99c0,5.4-3.2,8.6-8.6,8.6H52h0
		C39.6,107.6,27.3,107.6,14.9,107.6z M15.3,36.9c-4.9,0-7.6,2.8-7.6,7.7v55.2c0,0.7,0,1.4,0.2,2.1c0.7,3.3,3.3,5.1,7.1,5.2
		c12.4,0,24.8,0,37.1,0h37.2c5.1,0,8.1-3,8.1-8.1V44.5c0-4.9-2.8-7.6-7.7-7.6H15.3z M134.8,103.8c-0.9,0-1.6-0.7-1.9-1
		c-4.4-4.2-8.8-8.4-13.1-12.6c-5.5-5.2-10.9-10.4-16.4-15.7c-0.8-0.8-1.2-1.4-1.2-2.1c0-0.6,0.4-1.3,1.2-2l29.2-27
		c0.3-0.3,0.6-0.6,1-0.8c0.3-0.2,0.6-0.3,0.9-0.4c1.1-0.1,2.1,0.6,2.2,1.7c0,0.5,0,0.9,0,1.4l0,27.4h0l0,5.7c0,7.5,0,14.9,0,22.4
		c0,0.8-0.2,1.6-0.7,2.2C135.7,103.7,135.2,103.8,134.8,103.8z M134.8,42.8c-0.1,0-0.1,0-0.2,0c-0.3,0-0.5,0.1-0.7,0.3
		c-0.3,0.2-0.6,0.5-0.9,0.8l-29.2,27c-0.7,0.7-1.1,1.2-1.1,1.7c0,0.5,0.3,1,1,1.7c5.5,5.2,10.9,10.4,16.4,15.7
		c4.4,4.2,8.8,8.4,13.1,12.6c1,1,1.8,1.1,2.5,0.4c0.4-0.5,0.6-1.2,0.6-1.9c0-7.5,0-15,0-22.4l0-5.2l0-0.3V45.5c0-0.5,0-0.9,0-1.3
		C136.2,43.4,135.6,42.8,134.8,42.8z"/>
</g>
<g>
	<rect x="27.2" y="46.1" class="st0" width="4.2" height="20.8"/>
</g>
<g>
	<rect x="18.9" y="54.4" class="st0" width="20.8" height="4.2"/>
</g>
</svg>
