<?xml version="1.0" encoding="utf-8"?>
<!-- Generator: Adobe Illustrator 22.1.0, SVG Export Plug-In . SVG Version: 6.00 Build 0)  -->
<svg version="1.1" id="Layer_1" xmlns="http://www.w3.org/2000/svg" xmlns:xlink="http://www.w3.org/1999/xlink" x="0px" y="0px"
	 viewBox="0 0 144 144" style="enable-background:new 0 0 144 144;" xml:space="preserve">
<style type="text/css">
	.st0{fill:#003359;stroke:#003359;stroke-width:0.5;stroke-miterlimit:10;}
</style>
<title>JJ-Icons-Marketing Services-v1</title>
<path class="st0" d="M87.2,107l3.4,15.8h1.5c4.3,0,8.7,0,13,0c2.2,0,2.9,0.7,2.9,2.9c0,2.6,0,5.3,0,7.9c0,2-0.8,2.8-2.7,2.8H38.5
	c-2,0-2.8-0.7-2.8-2.7c0-2.7,0-5.5,0-8.2c0-1.9,0.8-2.6,2.7-2.7c4.6,0,9.1,0,13.7,0c0.9,0,1.3-0.2,1.5-1.2c1-4.8,2-9.6,3.1-14.7H55
	c-12.7,0-25.3,0-38,0c-7.3,0-13.1-4.5-14.7-11.4c-0.3-1.3-0.4-2.7-0.4-4.1c0-22.8,0-45.6,0-68.4C1.9,14,8.2,7.7,17.3,7.7h109.1
	c8.7,0,14.6,5.5,15.4,14.1c0.2,1.8,0.3,3.6,0.3,5.5c0,21.4,0,42.8,0,64.2c0,7.5-4.6,13.5-11.5,15.1c-1.4,0.3-2.8,0.4-4.2,0.4
	c-12.4,0-24.8,0-37.3,0L87.2,107z M137.4,79.8v-1.4c0-18.3,0-36.7,0-55c0-6.9-4.4-11.3-11.3-11.3H17.7c-6.9,0-11.3,4.4-11.3,11.3
	c0,18.3,0,36.6,0,54.9c0,0.5,0,1,0,1.5L137.4,79.8z M6.4,84.5c0,1.7,0,3.4,0,5c0,1.7,0.1,3.5,0.4,5.2c1.2,4.9,5.4,7.8,10.7,7.8
	h108.8c0.8,0,1.6-0.1,2.4-0.2c4.1-0.7,7.8-4,8.4-8.1c0.4-3.2,0.1-6.4,0.1-9.7L6.4,84.5z M61.2,107l-3.3,15.7h27.9L82.5,107L61.2,107
	z M40.3,131.7h63v-4.3h-63V131.7z"/>
<path class="st0" d="M46.9,39.3h9.7c3.6,0,3.9,0.3,4,3.9c0,0.4,0,0.8,0,1.5l7.7-3.9c0.8-0.4,1.6-0.8,2.4-1.2c1-0.7,2.4-0.4,3.1,0.6
	c0.2,0.3,0.3,0.7,0.4,1.1c0.1,0.4,0.1,0.8,0.1,1.3c0,8.4,0,16.7,0,25.1c0,3-1.5,3.9-4.2,2.6l-9.4-4.8c0,1.1,0,2,0,2.9
	c-0.1,1.7-0.8,2.5-2.5,2.5c-8.8,0-17.7,0-26.5,0c-1.8,0-2.6-0.9-2.6-2.7c0-4.7,0-9.3,0-14c0-0.5,0-1,0-1.6c-5.1-1-9.2-3.6-11.6-8.3
	c-2-3.6-2.5-7.8-1.4-11.7c2.3-7.9,10.3-12.8,18.4-11.1C42.4,23,47.7,30.3,46.9,39.3z M33.6,52.6v13.7h22.3c0.4-3,0.4-3-2.2-4.2
	c-3-1.5-6.1-3-9.1-4.5c-1.1-0.5-2.1-1.1-2.1-2.5s1-2,2.1-2.5c3.5-1.7,6.9-3.4,10.4-5.1c0.4-0.2,0.9-0.6,1-1c0.1-0.9,0.1-1.8,0-2.7
	c-3.4,0-6.7,0-9.9,0c-0.4,0.1-0.8,0.3-1,0.7C42.7,48.8,38.5,51.8,33.6,52.6z M29,47.9c0-1.9,0-3.8,0-5.8c0-2.2,0.7-2.9,2.9-2.9
	c3,0,6-0.1,9,0c1.2,0,1.6-0.3,1.7-1.5c0.3-5-2.7-9.6-7.4-11.3c-4.9-1.8-10.4,0-13.3,4.4C17.4,37.3,21.2,46.7,29,47.9z M69.6,45.1
	c-3,1.5-5.7,2.8-8.5,4.3c-0.3,0.3-0.5,0.7-0.5,1.1c0.1,1.9,0.1,3.8-0.1,5.6c-0.5,3.3,0.7,5.2,3.8,6.3c1.8,0.7,3.5,1.6,5.2,2.6
	L69.6,45.1z M56,58.2v-6.3l-6.3,3.1L56,58.2z M40.1,43.8h-6.6V48C36.2,47.5,38.6,46,40.1,43.8z"/>
<path class="st0" d="M128.3,66.5v4.3h-45v-4.3H128.3z"/>
<path class="st0" d="M128.3,57.4v4.3H90.1v-4.3H128.3z"/>
<path class="st0" d="M128.2,52.7H96.8v-4.3h31.4V52.7z"/>
<path class="st0" d="M123.9,39.3h4.3v4.4h-4.3V39.3z"/>
<path class="st0" d="M128.3,30.3v4.3h-4.4v-4.3H128.3z"/>
<path class="st0" d="M114.8,34.7v-4.3h4.4v4.3H114.8z"/>
<path class="st0" d="M128.3,21.3v4.4h-4.4v-4.4H128.3z"/>
<path class="st0" d="M114.8,25.6v-4.3h4.4v4.3H114.8z"/>
<path class="st0" d="M110.2,25.6h-4.3v-4.3h4.3V25.6z"/>
<path class="st0" d="M71.9,88.9c2.5,0,4.5,2.1,4.5,4.6c0,2.5-2.1,4.5-4.6,4.5c-2.5,0-4.5-2.1-4.5-4.6c0,0,0,0,0,0
	C67.4,90.9,69.5,88.9,71.9,88.9z"/>
</svg>
