<svg id="Layer_1" data-name="Layer 1" xmlns="http://www.w3.org/2000/svg" viewBox="0 0 144 144"><defs><style>.cls-1{stroke:#fff;stroke-miterlimit:10;stroke-width:2px;}</style></defs><title>JJ-Icons-Marketing Services-v1</title><path class="cls-1" d="M40,117.77V80H33.89v38H29.36c3.67,3.69,5,7.76,4.12,12.37A12.25,12.25,0,0,1,28.67,138a12.75,12.75,0,0,1-16.44-1c-5-4.76-5-11.27.17-18.79H8.27c0-.82,0-1.43,0-2,0-19.86,0-39.72,0-59.58,0-1.72.46-2.21,2.17-2.18,6,.1,12,0,17.93,0h2.14V41.67H17.92V32.15H8.44v-6.4h9.42v-9.6H30.52V3.5h82.89V16H126.2V25.7h9.53V32h-9.45v9.52H113.62V54.42h22.11V118h-4.26c3,3.32,4.67,6.81,4.23,11a12.47,12.47,0,0,1-6.18,9.7,12.72,12.72,0,0,1-16-2.51c-3.37-3.76-5.36-11.15.94-18h-4.13V80H104v37.75M97.45,60.91H46.68v50.68H97.45ZM107,54.27V9.86H37V54.27H49.76V35.39H94.43V54.27ZM87.92,41.75H56.18v12.5H87.92ZM27.3,111.67V80.06H14.77v31.62Zm102,0V80H116.79v31.62ZM40.09,60.93H14.77V73.42H40.09Zm89.21,12.5V60.94H104V73.44ZM27.38,127.64a6.35,6.35,0,0,0-12.7.12,6.35,6.35,0,1,0,12.7-.12Zm89.34,0a6.35,6.35,0,1,0,12.7.07,6.35,6.35,0,0,0-12.7-.07ZM113.63,22.52V35.08h6.09V22.52Zm-89.28,0V35.08h6.1V22.52Z"/><path class="cls-1" d="M68.95,98.86v-6.1h6.2v6.1Z"/><path class="cls-1" d="M69,86.2V80h6.14v6.2Z"/><path class="cls-1" d="M68.85,73.41V67.16h6.23v6.25Z"/><path class="cls-1" d="M88,28.83a6.25,6.25,0,0,1-6.29-6.26A6.36,6.36,0,0,1,88,16.12a6.46,6.46,0,0,1,6.34,6.31A6.36,6.36,0,0,1,88,28.83Z"/><path class="cls-1" d="M62.43,22.45a6.25,6.25,0,0,1-6.18,6.37,6.36,6.36,0,0,1-6.51-6.28,6.48,6.48,0,0,1,6.42-6.42A6.36,6.36,0,0,1,62.43,22.45Z"/></svg>