<svg id="Layer_1" data-name="Layer 1" xmlns="http://www.w3.org/2000/svg" viewBox="0 0 144 144"><defs><style>.cls-1{stroke:#fff;stroke-miterlimit:10;stroke-width:0.5px;}</style></defs><title>JJ-Icons-Marketing Services-v1</title><path class="cls-1" d="M87.24,107l3.38,15.81h1.51c4.33,0,8.66,0,13,0,2.17,0,2.87.71,2.89,2.88,0,2.63,0,5.27,0,7.9,0,2-.75,2.75-2.72,2.76H38.53c-2,0-2.76-.74-2.77-2.7q0-4.09,0-8.18c0-1.89.78-2.64,2.69-2.65,4.56,0,9.13,0,13.69,0,.88,0,1.29-.17,1.49-1.15,1-4.83,2-9.64,3.13-14.67H55c-12.65,0-25.31,0-38,0-7.31,0-13.1-4.5-14.72-11.4a18,18,0,0,1-.42-4.05q0-34.22,0-68.44C1.89,14,8.19,7.66,17.32,7.65H126.4c8.65,0,14.63,5.49,15.44,14.15.17,1.81.27,3.64.27,5.46q0,32.1,0,64.21c0,7.47-4.57,13.47-11.53,15.1a18.74,18.74,0,0,1-4.19.41q-18.63,0-37.25,0Zm50.12-27.15V78.45q0-27.51,0-55c0-6.85-4.44-11.26-11.32-11.26H17.68c-6.86,0-11.29,4.43-11.29,11.29q0,27.44,0,54.88c0,.5,0,1,0,1.51Zm-131,4.62c0,1.73,0,3.36,0,5a25.32,25.32,0,0,0,.4,5.18c1.22,4.88,5.37,7.83,10.72,7.83H126.28a15.14,15.14,0,0,0,2.38-.19c4.11-.66,7.84-4,8.36-8.09.4-3.17.08-6.43.08-9.72Zm54.86,22.57L57.91,122.7H85.85l-3.35-15.65ZM40.32,131.74h63V127.4h-63Z"/><path class="cls-1" d="M46.92,39.26h9.72c3.61,0,3.94.33,4,3.94,0,.41,0,.83,0,1.48l7.65-3.9c.79-.41,1.58-.82,2.39-1.21a2.23,2.23,0,0,1,3.45,1.75,6.82,6.82,0,0,1,.06,1.27q0,12.56,0,25.11c0,3-1.49,3.92-4.15,2.57l-9.4-4.8c0,1.09,0,2,0,2.9-.06,1.72-.81,2.5-2.54,2.5q-13.26,0-26.52,0C29.74,70.86,29,70,29,68.2c0-4.66,0-9.31,0-14,0-.51,0-1,0-1.64-5.15-1-9.16-3.61-11.65-8.27A15.4,15.4,0,0,1,16,32.58,15.79,15.79,0,0,1,34.38,21.5C42.42,23,47.65,30.34,46.92,39.26ZM33.6,52.59v13.7H55.94c.38-3,.38-3-2.15-4.2-3-1.49-6.07-3-9.11-4.48-1.09-.53-2.13-1.12-2.14-2.52s1-2,2.11-2.54c3.46-1.69,6.92-3.38,10.36-5.11.41-.21.93-.6,1-1a15.67,15.67,0,0,0,0-2.68c-3.44,0-6.68,0-9.92,0a1.48,1.48,0,0,0-1.05.67A15.81,15.81,0,0,1,33.6,52.59ZM29,47.92c0-1.93,0-3.85,0-5.77,0-2.17.71-2.88,2.87-2.89,3,0,6-.07,9,0,1.23,0,1.63-.35,1.67-1.55a11.38,11.38,0,0,0-7.41-11.32A11.2,11.2,0,0,0,21.86,30.8C17.38,37.34,21.22,46.72,29,47.92Zm40.62-2.77c-3,1.48-5.72,2.84-8.46,4.27a1.51,1.51,0,0,0-.53,1.13,46.94,46.94,0,0,1-.07,5.63c-.5,3.29.67,5.22,3.84,6.25A41.22,41.22,0,0,1,69.59,65ZM56,58.19V51.94l-6.25,3.13ZM40.14,43.85H33.56V48A10.23,10.23,0,0,0,40.14,43.85Z"/><path class="cls-1" d="M128.26,66.46V70.8h-45V66.46Z"/><path class="cls-1" d="M128.26,57.42v4.35H90.05V57.42Z"/><path class="cls-1" d="M128.23,52.74H96.79V48.4h31.44Z"/><path class="cls-1" d="M123.9,39.29h4.31v4.39H123.9Z"/><path class="cls-1" d="M128.27,30.34v4.32h-4.39V30.34Z"/><path class="cls-1" d="M114.84,34.67V30.33h4.37v4.34Z"/><path class="cls-1" d="M128.27,21.26v4.36h-4.38V21.26Z"/><path class="cls-1" d="M114.84,25.64V21.3h4.36v4.34Z"/><path class="cls-1" d="M110.16,25.65h-4.34V21.31h4.34Z"/><path class="cls-1" d="M71.93,88.95a4.51,4.51,0,1,1-4.56,4.41A4.53,4.53,0,0,1,71.93,88.95Z"/></svg>