<svg id="Layer_1" data-name="Layer 1" xmlns="http://www.w3.org/2000/svg" viewBox="0 0 144 144"><defs><style>.cls-1{stroke:#fff;stroke-miterlimit:10;stroke-width:0.5px;}</style></defs><title>JJ-Icons-Marketing Services-v1</title><path class="cls-1" d="M50.16,112.22H48.4q-16.76,0-33.52,0c-5.08,0-8.9-2.11-11.2-6.68a23.94,23.94,0,0,1-1.19-3.71V42.37c.79-1.89,1.31-4,2.44-5.63,2.38-3.5,6-5,10.16-5H89.75c5.15,0,9.18,2.1,11.4,6.81a15.35,15.35,0,0,1,1.25,6c.16,6.19.06,12.39.06,18.59,0,.49,0,1,0,1.84.58-.49,1-.81,1.34-1.14q13-12,25.92-23.95c1.93-1.79,4.07-2.69,6.67-2.06a6.63,6.63,0,0,1,5.11,6.67c0,5.66,0,11.31,0,17q0,20,0,39.9a6.67,6.67,0,0,1-7.66,6.94,7.51,7.51,0,0,1-4.3-2.39L103.83,81.4c-.35-.34-.72-.66-1.37-1.26,0,.78,0,1.25,0,1.71,0,5.75,0,11.49,0,17.24,0,6.36-3.48,11-9.41,12.68a15.93,15.93,0,0,1-4.16.44c-9.77,0-19.54,0-29.32,0H57.89M52,107.34q18.59,0,37.18,0c5.23,0,8.35-3.14,8.35-8.37q0-27.21,0-54.42c0-5-2.89-7.89-7.93-7.89H15.28c-5,0-7.9,2.92-7.9,7.94q0,27.62,0,55.23A10,10,0,0,0,7.56,102c.75,3.39,3.42,5.35,7.3,5.36Q33.45,107.36,52,107.34Zm84.58-34.18q0-13.84,0-27.68a7.88,7.88,0,0,0,0-1.35,1.76,1.76,0,0,0-2.79-1.2,7.39,7.39,0,0,0-.93.79l-29.22,27c-1.51,1.39-1.52,2.32-.05,3.73q8.18,7.84,16.38,15.66,6.57,6.28,13.14,12.57c.88.84,1.86,1.37,2.83.41a3.16,3.16,0,0,0,.66-2.07C136.63,91.71,136.62,82.43,136.62,73.16Z"/><rect x="27.21" y="46.07" width="4.17" height="20.85"/><rect x="27.21" y="46.07" width="4.17" height="20.85" transform="translate(85.8 27.2) rotate(90)"/></svg>