<?xml version="1.0" encoding="utf-8"?>
<!-- Generator: Adobe Illustrator 22.1.0, SVG Export Plug-In . SVG Version: 6.00 Build 0)  -->
<svg version="1.1" id="Layer_1" xmlns="http://www.w3.org/2000/svg" xmlns:xlink="http://www.w3.org/1999/xlink" x="0px" y="0px"
	 viewBox="0 0 144 144" style="enable-background:new 0 0 144 144;" xml:space="preserve">
<style type="text/css">
	.st0{fill:#003359;stroke:#003359;stroke-width:0.5;stroke-miterlimit:10;}
</style>
<title>JJ-Icons-Marketing Services-v1</title>
<path class="st0" d="M124.4,2.8h6.5c0.1,0.1,0.2,0.1,0.4,0.2c5.6,0.8,9.9,5.6,9.9,12.2c-0.1,31.7,0,63.4,0,95.1
	c0,1.3-0.1,2.5-0.4,3.7c-1.5,5.5-5.9,8.7-12,8.7c-40.9,0-81.8,0-122.6,0c-1.3,0.1-2.6-0.5-3.3-1.6V22.8c0.8-1.4,2.1-1.6,3.6-1.6
	c38.1,0,76.3,0,114.4,0h1.9c0-5.3,0-10.3,0-15.4C122.6,4.6,123.3,3.4,124.4,2.8z M7.5,25.9v92.2h121c0.7,0,1.4,0,2.1-0.1
	c3.7-0.5,6.4-4,5.9-7.7c-0.4-3.1-2.9-5.5-6-5.9c-1.4-0.1-2.8-0.1-4.2-0.1c-3,0-3.6-0.6-3.6-3.6c0-24.4,0-48.7,0-73.1v-1.7H7.5z
	 M136.6,102v-1.4c0-28.5,0-57,0-85.5c0-0.5,0-1.1-0.1-1.6c-0.6-3.9-4.2-6.6-8.1-6.1c-0.3,0-0.6,0.1-0.9,0.2v92
	C130.6,99.6,133.7,99.9,136.6,102z"/>
<path class="st0" d="M89.3,127.4h25.5c2.6,0,3.3,0.7,3.3,3.3s0,5,0,7.6c0,2.1-0.9,3-2.9,3c-17.3,0-34.6,0-51.9,0
	c-0.8,0-1.5-0.2-2.1-0.6c-2.1-1.3-4.1-2.6-6.1-4s-2-3.1,0-4.5c1.8-1.2,3.6-2.5,5.5-3.6c0.9-0.6,2-0.9,3.1-1
	C72.3,127.3,80.8,127.4,89.3,127.4z M59.8,134.5c1.7,0.7,3.2,1.9,4.7,2c12.8,0.1,25.5,0.1,38.3,0.1h1.3V132h-1.7
	c-12.1,0-24.2,0.1-36.3-0.1C63.8,131.9,61.5,132.9,59.8,134.5z M108.9,136.5h4.5v-4.4h-4.5V136.5z"/>
<path class="st0" d="M44.4,72.1v4.5h1.5c3.2,0,6.3,0,9.5,0c1.9,0,2.8,0.9,2.8,2.7c0,4.4,0,8.7,0,13.1c0,1.8-0.9,2.6-2.7,2.6
	c-9,0-17.9,0-26.9,0c-1.8,0-2.7-0.8-2.7-2.6c0-4.4,0-8.7,0-13.1c0-1.8,0.9-2.7,2.8-2.7c3.6,0,7.2,0,11,0c0-2,0-4,0-6
	c0-0.7,0.1-1.4,0.4-2.1c0.5-1.1,1.6-1.2,2.7-1.2h26.8v-4.6h-1.4c-3.1,0-6.2,0-9.3,0c-2.2,0-3-0.8-3-3c0-4.1,0-8.3,0-12.4
	c0-2.1,0.8-3,2.9-3c8.8,0,17.7,0,26.5,0c2.1,0,2.9,0.8,2.9,2.9c0,4.2,0,8.5,0,12.7c0,2-0.9,2.8-2.9,2.9c-3.1,0-6.2,0-9.3,0h-1.6v4.6
	h26.7c2.4,0,3.1,0.7,3.2,3.1c0,2,0,3.9,0,6.1H115c2.2,0,3.1,0.8,3.1,3c0,4.2,0,8.4,0,12.6c0,2.1-0.8,2.9-2.9,2.9
	c-8.9,0-17.7,0-26.6,0c-1.9,0-2.8-0.9-2.8-2.8c0-4.3,0-8.6,0-12.8c0-1.9,0.9-2.8,2.9-2.8c3.6,0,7.2,0,10.9,0v-4.6H44.4z M113.4,81.3
	H90.5v9h22.9L113.4,81.3z M30.5,90.3h23v-9H30.5L30.5,90.3z M83.5,49.1H60.5v9h22.9V49.1z"/>
<path class="st0" d="M78.9,35.2v4.4H49v-4.4H78.9z"/>
<path class="st0" d="M39.8,104.2v-4.4h18.3v4.4L39.8,104.2z"/>
<path class="st0" d="M85.9,104.2v-4.4h18.3v4.4H85.9z"/>
<path class="st0" d="M83.6,35.2h11.3v4.4H83.6V35.2z"/>
<path class="st0" d="M35,104.2h-9v-4.4h9V104.2z"/>
<path class="st0" d="M109,104.3v-4.5h9.1c0,1.3,0,2.6,0,3.8c0,0.2-0.4,0.7-0.6,0.7C114.7,104.3,111.9,104.3,109,104.3z"/>
</svg>
