<svg id="Layer_1" data-name="Layer 1" xmlns="http://www.w3.org/2000/svg" viewBox="0 0 144 144"><defs><style>.cls-1{stroke:#fff;stroke-miterlimit:10;stroke-width:0.5px;}</style></defs><title>JJ-Icons-Marketing Services-v1</title><path class="cls-1" d="M124.41,2.82h6.49a1.37,1.37,0,0,0,.36.17c5.6.75,9.94,5.61,9.93,12.2-.06,31.7,0,63.39,0,95.09a14.68,14.68,0,0,1-.41,3.74c-1.47,5.52-5.88,8.72-12,8.72q-61.32,0-122.64,0a3.48,3.48,0,0,1-3.32-1.58V22.82c.83-1.36,2.11-1.58,3.59-1.58q57.22,0,114.43,0h1.9c0-5.27,0-10.31,0-15.35A3,3,0,0,1,124.41,2.82ZM7.5,25.93v92.21h121a16.38,16.38,0,0,0,2.15-.14,6.85,6.85,0,0,0-.14-13.59c-1.38-.13-2.79-.11-4.18-.12-3,0-3.55-.57-3.55-3.55q0-36.54,0-73.08V25.93ZM136.56,102v-1.43q0-42.73,0-85.47a11.51,11.51,0,0,0-.08-1.62,7.15,7.15,0,0,0-9-5.87v92C130.64,99.59,133.7,99.89,136.56,102Z"/><path class="cls-1" d="M89.28,127.36h25.53c2.58,0,3.3.71,3.31,3.27s0,5,0,7.57c0,2.12-.86,3-2.95,3q-25.94,0-51.88,0a4.29,4.29,0,0,1-2.14-.63c-2.06-1.28-4.07-2.65-6.08-4s-2-3.11,0-4.5c1.82-1.24,3.62-2.53,5.52-3.63a6.68,6.68,0,0,1,3.11-1C72.26,127.33,80.77,127.36,89.28,127.36Zm-29.43,7.16c1.69.73,3.19,1.95,4.72,2,12.78.15,25.55.09,38.33.09h1.27V132H102.5c-12.1,0-24.21.08-36.31-.06A9,9,0,0,0,59.85,134.52Zm49.09,2h4.48v-4.45h-4.48Z"/><path class="cls-1" d="M44.39,72.07V76.6h1.48c3.15,0,6.3,0,9.46,0,1.88,0,2.81.86,2.83,2.68q.06,6.55,0,13.1c0,1.78-.91,2.63-2.71,2.63q-13.44,0-26.88,0c-1.81,0-2.68-.83-2.69-2.64q-.07-6.55,0-13.1c0-1.84.94-2.66,2.83-2.67,3.6,0,7.2,0,11,0,0-2,0-4,0-6a5.39,5.39,0,0,1,.37-2.08c.51-1.1,1.59-1.17,2.67-1.17H69.58V62.79h-1.4c-3.11,0-6.21,0-9.32,0-2.17,0-3-.85-3-3q0-6.21,0-12.43c0-2.13.83-3,2.93-3q13.24,0,26.48,0c2.05,0,2.88.83,2.9,2.87q0,6.35,0,12.7c0,2-.9,2.85-2.92,2.87-3.11,0-6.21,0-9.32,0H74.37V67.4H101.1c2.41,0,3.14.72,3.16,3.14,0,2,0,3.95,0,6.06H115c2.21,0,3.07.82,3.08,3q0,6.28,0,12.56c0,2.06-.84,2.88-2.87,2.89q-13.31,0-26.61,0c-1.95,0-2.81-.86-2.82-2.8q0-6.42,0-12.83c0-1.92.92-2.77,2.86-2.79,3.59,0,7.19,0,10.87,0V72.07Zm69,9.25H90.49v9h22.94Zm-82.87,9H53.48v-9H30.55ZM83.47,49.06H60.55v9H83.47Z"/><path class="cls-1" d="M78.86,35.19V39.6H49V35.19Z"/><path class="cls-1" d="M39.79,104.15V99.75H58.08v4.41Z"/><path class="cls-1" d="M85.88,104.19V99.76h18.26v4.43Z"/><path class="cls-1" d="M83.62,35.18H94.95v4.44H83.62Z"/><path class="cls-1" d="M35,104.2h-9V99.77h9Z"/><path class="cls-1" d="M109,104.26v-4.5h9.14c0,1.31,0,2.56,0,3.8,0,.24-.38.67-.58.67C114.69,104.27,111.87,104.26,109,104.26Z"/></svg>