<svg id="Layer_1" data-name="Layer 1" xmlns="http://www.w3.org/2000/svg" viewBox="0 0 144 144"><defs><style>.cls-1{stroke:#fff;stroke-miterlimit:10;stroke-width:0.5px;}</style></defs><title>JJ-Icons-Marketing Services-v1</title><path class="cls-1" d="M64,3.69a3.36,3.36,0,0,1,2.34,3.59c0,7.1,0,14.2,0,21.31,0,2.48-1.41,3.84-3.44,3.43a2.53,2.53,0,0,1-2.08-2,6.49,6.49,0,0,1-.19-1.58c0-7,0-14,0-21,0-1.77.56-3.11,2.34-3.73Z"/><path class="cls-1" d="M60.58,94.73q0-20.61,0-41.21c0-.44,0-.89,0-1.33A2.87,2.87,0,0,1,65.4,50l6.51,5.31,55.31,45.26c.27.22.55.45.8.7a2.84,2.84,0,0,1-1.82,4.85c-.44,0-.89,0-1.33,0q-17.87,0-35.74,0A2.23,2.23,0,0,0,87,107.25Q76.75,122.7,66.44,138.09a9.37,9.37,0,0,1-.94,1.29,2.78,2.78,0,0,1-4.77-1.32,11.25,11.25,0,0,1-.14-1.85Q60.57,115.47,60.58,94.73Zm57,5.76.15-.31-51.36-42v69.62c.44-.6.73-1,1-1.36,5.3-7.95,10.62-15.88,15.88-23.86a4.24,4.24,0,0,1,4-2.11c9.65.06,19.3,0,28.95,0Z"/><path class="cls-1" d="M50.15,68.67A8.11,8.11,0,0,1,49,70.51Q41.33,78.28,33.57,86c-1.43,1.42-3.19,1.48-4.36.25s-1-2.87.36-4.26Q37.28,74.21,45,66.5a2.89,2.89,0,0,1,3.37-.9C49.51,66.07,50.11,67,50.15,68.67Z"/><path class="cls-1" d="M50.14,35.47c0,2.65-2.28,4-4.11,3a5.86,5.86,0,0,1-1.24-1q-7.5-7.48-15-15a5,5,0,0,1-1.18-1.59,2.61,2.61,0,0,1,.72-3,2.58,2.58,0,0,1,3.08-.46,5.64,5.64,0,0,1,1.35,1.06c5,5,10,10,15,15A10.78,10.78,0,0,1,50.14,35.47Z"/><path class="cls-1" d="M98.45,20.37a8.24,8.24,0,0,1-1.15,1.83Q89.63,30,81.87,37.67c-1.43,1.42-3.19,1.48-4.36.24s-1-2.88.36-4.27q7.71-7.75,15.45-15.46a2.89,2.89,0,0,1,3.37-.9C97.81,17.77,98.41,18.64,98.45,20.37Z"/><path class="cls-1" d="M29.3,54.92c-3.51,0-7,0-10.53,0a6.21,6.21,0,0,1-1.83-.24,2.66,2.66,0,0,1-1.8-2.92,2.71,2.71,0,0,1,2.29-2.42,6.49,6.49,0,0,1,1.06-.08q10.79,0,21.59,0c1.91,0,3,.79,3.33,2.22.39,1.93-1,3.42-3.19,3.44C36.58,54.94,32.94,54.92,29.3,54.92Z"/><path class="cls-1" d="M97.6,54.92c-3.51,0-7,0-10.53,0a6.21,6.21,0,0,1-1.83-.24,2.66,2.66,0,0,1-1.8-2.92,2.69,2.69,0,0,1,2.29-2.41,9.46,9.46,0,0,1,1.46-.08H108a9.55,9.55,0,0,1,1.46.08,2.7,2.7,0,0,1,2.32,2.54,2.66,2.66,0,0,1-1.93,2.84,6.27,6.27,0,0,1-1.71.2C104.62,54.93,101.11,54.92,97.6,54.92Z"/></svg>