<svg id="Layer_1" data-name="Layer 1" xmlns="http://www.w3.org/2000/svg" viewBox="0 0 144 144"><title>JJ-SiteIcons-share-v1</title><path d="M0,0H144.07c0,.65-.11,1.3-.11,2q0,70.13,0,140.25c0,1.43-.36,1.8-1.79,1.79q-20.47-.08-40.94,0c-1.18,0-1.63-.24-1.62-1.53q.06-26.1,0-52.19c0-1.34.45-1.66,1.69-1.65,5.06.05,10.13,0,15.19.06,1.43,0,1.85-.55,2-1.81.71-5.66,1.48-11.31,2.22-17,.18-1.41.29-2.83.45-4.42H119.3c-6,0-12.1,0-18.15,0-1.18,0-1.52-.36-1.51-1.52.06-4.78,0-9.57.05-14.35a6.93,6.93,0,0,1,4.09-6.54,11.89,11.89,0,0,1,4.59-1c3.93-.14,7.88-.08,11.81,0,1,0,1.49-.22,1.48-1.38-.05-6,0-12,0-18,0-1-.34-1.39-1.38-1.38-6.38,0-12.76-.14-19.13.07a24.69,24.69,0,0,0-19.44,10,25.66,25.66,0,0,0-5.22,16c-.05,5.58,0,11.16,0,16.74,0,1.11-.35,1.44-1.45,1.43-5.16,0-10.32,0-15.47,0-1.32,0-1.78.31-1.76,1.7.07,6.61,0,13.22,0,19.83v1.49c.73.06,1.33.14,1.93.14,5,0,9.94.05,14.91,0,1.4,0,1.84.36,1.83,1.81q-.07,25.88,0,51.77c0,1.39-.32,1.82-1.78,1.81Q38.37,143.92,2,144c-1.9,0-1.9,0-1.9-1.9Q.11,72,.11,2C.11,1.3,0,.65,0,0Z"/></svg>