<svg id="Layer_1" data-name="Layer 1" xmlns="http://www.w3.org/2000/svg" viewBox="0 0 144 144"><title>JJ-SiteIcons-share-v1</title><path d="M0,144V0Q71.1,0,142.21,0C143.6,0,144,.3,144,1.74q-.07,70.26,0,140.52c0,1.44-.37,1.74-1.76,1.74Q71.1,143.94,0,144ZM77.68,63.69c0-2.13,0-4.26,0-6.4,0-1.69-.4-2.11-2-2.12q-8.15,0-16.3,0c-1.54,0-2,.47-2,2q0,31.41,0,62.82c0,1.7.35,2,2.08,2H75.59c2.23,0,2.53-.29,2.53-2.48q0-17.28,0-34.57c0-.84,0-1.69.07-2.53a11.64,11.64,0,0,1,16.88-9.28c4.46,2.4,6.34,6.29,6.34,11.22q0,17.71,0,35.41c0,2,.25,2.22,2.16,2.23H120c1.81,0,2.2-.39,2.2-2.24,0-14.33.07-28.67,0-43-.06-8.89-3.92-15.75-11.6-20.33-5.19-3.1-10.91-3.36-16.73-2.87A19.88,19.88,0,0,0,80.8,60C79.72,61.15,78.88,62.48,77.68,63.69ZM44.17,88.58q0-14.62,0-29.23c0-2.93-1.24-4.16-4.19-4.17q-6.11,0-12.23,0c-3.09,0-4.32,1.24-4.33,4.35,0,3.89,0,7.78,0,11.66q0,23.26,0,46.52c0,3.16,1.19,4.35,4.3,4.35H39.94c3.07,0,4.22-1.16,4.22-4.25Q44.17,103.2,44.17,88.58ZM33.83,45.94a12,12,0,1,0-.1-24,12,12,0,1,0,.1,24Z"/></svg>