<?xml version="1.0" encoding="utf-8"?>
<!-- Generator: Adobe Illustrator 22.1.0, SVG Export Plug-In . SVG Version: 6.00 Build 0)  -->
<svg version="1.1" id="Layer_1" xmlns="http://www.w3.org/2000/svg" xmlns:xlink="http://www.w3.org/1999/xlink" x="0px" y="0px"
	 viewBox="0 0 144 144" style="enable-background:new 0 0 144 144;" xml:space="preserve">
<style type="text/css">
	.st0{fill:#003359;}
</style>
<title>JJ-SiteIcons-share-v1</title>
<path class="st0" d="M0,144.1V0c0.7,0,1.3,0.1,2,0.1h142v144H2C1.3,144.1,0.7,144.1,0,144.1z M70.8,78.3c-0.5,3.1-2.1,5.8-4.4,7.9
	c-4.8,4.3-10.5,5.2-16.6,3.9c-9.5-2-15.9-11.5-14.4-21.4C37.2,57.5,49,50,59.6,53.7c2.3,0.8,4.4,2.3,6.6,3.4l9-9.1
	c-1.6-1.2-3.2-2.6-5-3.6c-11.4-6.8-25.4-5.8-36.1,2.4c-12.3,9.5-15.8,27.7-7.7,41c7,12,20.9,18.1,34.5,15.2
	c9.5-1.9,16.6-7.1,20.7-16.1c3-6.6,3.6-13.6,2.7-20.8c-0.1-0.9-0.7-0.9-1.4-0.9c-9.2,0-18.5,0-27.7,0c-1.1,0-1.3,0.4-1.3,1.4
	c0,3,0,6.1,0,9.2c0,2.7-0.4,2.4,2.5,2.4C61,78.3,65.8,78.3,70.8,78.3z M111.2,66.2c0-3.3,0-6.4,0-9.5c0-1.2-0.2-1.7-1.5-1.6
	c-1.7,0.1-3.5,0.1-5.2,0c-1.1,0-1.5,0.3-1.5,1.4c0.1,2.7,0,5.4,0,8.2c0,0.5-0.1,1-0.1,1.6H92c0,2.5,0,4.9,0,7.3c0,0.3,0.6,0.8,1,0.8
	c1.8,0.1,3.7,0,5.5,0h4.6v11h8.1v-11h10.9v-8.1H111.2z"/>
</svg>
