<?xml version="1.0" encoding="utf-8"?>
<!-- Generator: Adobe Illustrator 22.1.0, SVG Export Plug-In . SVG Version: 6.00 Build 0)  -->
<svg version="1.1" id="Layer_1" xmlns="http://www.w3.org/2000/svg" xmlns:xlink="http://www.w3.org/1999/xlink" x="0px" y="0px"
	 viewBox="0 0 144 144" style="enable-background:new 0 0 144 144;" xml:space="preserve">
<style type="text/css">
	.st0{fill:#003359;}
</style>
<title>JJ-SiteIcons-CreateiveSeervices-v2</title>
<g>
	<path class="st0" d="M24.2,71.9c0-19.3,0-38.7,0-58c0-4.6,1.8-8.2,6.1-10.2c1.6-0.7,3.3-1.1,5-1.1c24.5-0.1,49-0.1,73.5,0
		c6.5,0,11,4.6,11,11c0,38.9,0,77.9,0,116.8c0,6.5-4.6,11.1-11.1,11.1c-24.4,0-48.8,0-73.3,0c-6.6,0-11.1-4.6-11.1-11.2
		C24.2,110.8,24.2,91.4,24.2,71.9z M30.1,34.8v70.6h83.8V34.8H30.1z M30,111.4v1.3c0,5.7,0,11.5,0,17.2c0,3.8,1.9,5.7,5.7,5.7h72.7
		c3.8,0,5.7-1.9,5.7-5.7c0-5.7,0-11.5,0-17.2c0-0.4,0-0.9-0.1-1.3L30,111.4z M114,28.8c0-0.4,0.1-0.8,0.1-1.1c0-4.6,0-9.2,0-13.8
		c0-3.6-1.9-5.5-5.6-5.5c-24.3,0-48.6,0-72.9,0c-3.7,0-5.6,2-5.6,5.6c0,4.6,0,9.1,0,13.7c0,0.4,0,0.8,0.1,1.2L114,28.8z"/>
</g>
<g>
	<path class="st0" d="M72,53.9c2.6-3.6,6.5-6.1,10.9-6.9c11.3-2.1,21.6,8.3,19.2,19.6c-0.7,3.2-2.3,6.2-4.6,8.6
		c-6,6.3-12.1,12.5-18.1,18.8C75,98.5,69,98.5,64.7,94c-6.1-6.3-12.1-12.5-18.1-18.9c-7.8-8.3-6.1-20.8,3.7-26.4
		c7-3.8,15.6-2.2,20.8,3.9L72,53.9z M96.5,63.7c0.1-6-4.6-10.9-10.6-11c-5.6-0.1-10.4,4.1-10.9,9.7c-0.2,2.6-1.1,3.8-2.9,3.8
		s-2.9-1.2-3.1-3.8c-0.6-6-5.9-10.3-11.8-9.7c-6,0.6-10.3,5.9-9.7,11.8c0.3,2.6,1.5,5.1,3.4,6.9c6.1,6.2,12,12.5,18.1,18.7
		c2,2.1,4.2,2.1,6.1,0c6.1-6.3,12.1-12.6,18.2-18.8C95.3,69.2,96.5,66.5,96.5,63.7z"/>
</g>
<g>
	<path class="st0" d="M71.9,132.5c-2.9,0-5.9,0-8.8,0c-2.4,0-3.5-1.1-3.5-3.5c0-3.7,0-7.4,0-11.1c0-2.5,1.1-3.6,3.6-3.6
		c5.9,0,11.8,0,17.6,0c2.4,0,3.6,1.1,3.6,3.6c0,3.7,0,7.4,0,11.1c0,2.4-1.1,3.5-3.5,3.5C77.9,132.6,74.9,132.5,71.9,132.5z
		 M65.5,126.7h12.9v-6.4H65.5L65.5,126.7z"/>
</g>
<g>
	<path class="st0" d="M71.9,20.7c-3.1,0-6.2,0-9.3,0c-1.4,0.1-2.7-0.9-3-2.3c-0.3-1.3,0.3-2.6,1.5-3.1c0.5-0.2,1.1-0.3,1.7-0.3
		c6.1,0,12.3,0,18.4,0c2.3,0,3.6,1.4,3.3,3.3c-0.2,1.5-1.4,2.4-3.3,2.4C78.1,20.7,75,20.7,71.9,20.7z"/>
</g>
<g>
	<path class="st0" d="M99.4,17.8c0,1.9-1.6,3.4-3.5,3.4c-1.9,0-3.4-1.6-3.4-3.5c0-1.9,1.5-3.4,3.4-3.4
		C97.9,14.4,99.4,15.9,99.4,17.8z"/>
</g>
</svg>
