<svg id="Layer_1" data-name="Layer 1" xmlns="http://www.w3.org/2000/svg" viewBox="0 0 144 144"><defs><style>.cls-1{stroke:#fff;stroke-miterlimit:10;stroke-width:1.25px;}</style></defs><title>JJ-SiteIcons-CreateiveSeervices-v2</title><path class="cls-1" d="M24.23,71.94q0-29,0-58.05c0-4.62,1.84-8.19,6.06-10.2a12,12,0,0,1,5-1.1q36.76-.1,73.52,0c6.47,0,11,4.57,11,11.05q0,58.39,0,116.79c0,6.54-4.57,11.06-11.14,11.07q-36.62,0-73.25,0c-6.62,0-11.15-4.55-11.15-11.19Q24.2,101.1,24.23,71.94ZM30.07,34.8v70.65h83.85V34.8ZM30,111.39v1.35q0,8.61,0,17.23c0,3.79,1.88,5.69,5.66,5.7h72.71c3.77,0,5.65-1.91,5.65-5.7q0-8.61,0-17.23c0-.44,0-.87-.06-1.35Zm84-82.58c0-.43.06-.78.06-1.13,0-4.61,0-9.22,0-13.83,0-3.6-1.93-5.52-5.56-5.52q-36.47,0-72.95,0C31.9,8.33,30,10.28,30,13.89c0,4.56,0,9.13,0,13.69,0,.39,0,.79.08,1.23Z"/><path class="cls-1" d="M72,53.86A17.05,17.05,0,0,1,82.86,47c11.32-2.11,21.56,8.31,19.22,19.59a17.32,17.32,0,0,1-4.62,8.59Q88.41,84.57,79.32,94C75,98.46,69,98.47,64.7,94q-9.11-9.39-18.14-18.86c-7.85-8.25-6.09-20.77,3.67-26.41A16.76,16.76,0,0,1,71,52.63ZM96.5,63.65A10.78,10.78,0,0,0,75,62.32c-.2,2.57-1.13,3.81-2.93,3.85S69.21,64.93,69,62.32a10.84,10.84,0,1,0-18.17,9c6.08,6.2,12,12.5,18.08,18.74,2,2.06,4.15,2.07,6.12,0q9.1-9.41,18.16-18.85A10.61,10.61,0,0,0,96.5,63.65Z"/><path class="cls-1" d="M71.93,132.54c-2.94,0-5.88,0-8.82,0-2.38,0-3.48-1.07-3.51-3.47q-.06-5.56,0-11.12c0-2.46,1.14-3.57,3.57-3.58q8.82,0,17.63,0c2.44,0,3.56,1.12,3.58,3.58q0,5.56,0,11.12c0,2.4-1.12,3.46-3.5,3.48C77.9,132.55,74.92,132.54,71.93,132.54Zm-6.43-5.87H78.44v-6.36H65.51Z"/><path class="cls-1" d="M71.87,20.72c-3.12,0-6.24,0-9.35,0a2.86,2.86,0,0,1-3-2.28,2.75,2.75,0,0,1,1.54-3.15,4.33,4.33,0,0,1,1.7-.33q9.22,0,18.44,0c2.26,0,3.55,1.39,3.26,3.34-.22,1.49-1.41,2.41-3.26,2.42C78.1,20.73,75,20.72,71.87,20.72Z"/><path class="cls-1" d="M99.44,17.83A3.44,3.44,0,1,1,96,14.37,3.49,3.49,0,0,1,99.44,17.83Z"/></svg>