<?xml version="1.0" encoding="utf-8"?>
<!-- Generator: Adobe Illustrator 22.1.0, SVG Export Plug-In . SVG Version: 6.00 Build 0)  -->
<svg version="1.1" id="Layer_1" xmlns="http://www.w3.org/2000/svg" xmlns:xlink="http://www.w3.org/1999/xlink" x="0px" y="0px"
	 viewBox="0 0 144 144" style="enable-background:new 0 0 144 144;" xml:space="preserve">
<style type="text/css">
	.st0{fill:#003359;stroke:#FFFFFF;stroke-width:0.5;stroke-miterlimit:10;}
</style>
<title>JJ-SiteIcons-CreateiveSeervices-v2</title>
<path class="st0" d="M3.6,17.2c1.1-3.1,3.3-4.2,6.5-4.1c5.7,0.1,11.4,0,17.1,0h1.6c0-2.1,0-4.1,0-6.1c0-2.8,0.6-3.4,3.3-3.4h79.7
	c2.7,0,3.3,0.6,3.3,3.3c0,2,0,3.9,0.1,5.9c0,0.1,0.1,0.1,0.2,0.4h18.9c4.1,0,6.1,2,6.1,6c0,31.3,0,62.7,0,94c0,4.1-2,6.1-6,6.1
	c-1.6,0-3.1,0-4.7,0c-1.2,0.1-2.3-0.7-2.4-1.9c-0.1-1.2,0.7-2.3,1.9-2.4c0.2,0,0.3,0,0.5,0c1.6,0,3.2,0,4.8,0c1.1,0,1.6-0.5,1.5-1.5
	c0-0.3,0-0.6,0-0.9c0-30.9,0-61.8,0-92.7c0-2.3,0-2.3-2.3-2.3h-18.6c0,3.1,0,6,0,9c0,0.6,0,1.2-0.1,1.7c-0.1,1.1-1,1.9-2.1,1.8
	c-1.1,0.1-2-0.7-2.2-1.8c-0.1-0.5-0.1-1-0.1-1.5c0-5.7,0-11.5,0-17.2V8H33.3v89h7.2c0-0.5,0-1,0-1.5c0-5.2,0-10.3,0-15.5
	c0-2.2,0.7-3,3-3c11,0,22,0,33,0c2.2,0,2.9,0.8,2.9,3c0,5.1,0,10.2,0,15.2c0,0.5,0,1.1,0,1.8h15.8c0.4,0,0.7,0,1.1,0
	c1.2-0.1,2.3,0.8,2.3,2c0.1,1.2-0.8,2.3-2,2.3c-0.1,0-0.2,0-0.3,0c-0.3,0-0.6,0-0.9,0H16c-0.6,0-1.2,0-1.7-0.2
	c-1.1-0.3-1.8-1.4-1.6-2.5c0.2-0.7,0.8-1.3,1.5-1.5c0.5-0.1,1-0.2,1.6-0.2c3.8,0,7.6,0,11.4,0h1.5V17.6c-0.4,0-0.8-0.1-1.2-0.1H9.8
	c-1.6,0-1.8,0.2-1.8,1.9c0,31.3,0,62.5,0,93.8c0,1.7,0.2,1.9,2,1.9h85c0.4,0,0.9,0,1.3,0c1.2-0.1,2.2,0.8,2.3,2s-0.8,2.2-2,2.3
	c-0.1,0-0.2,0-0.3,0c-2.4,0-4.8,0-7.2,0h-1.5V136h6.1c1.3,0,2.7,0,4,0s2.4,0.2,2.8,1.6s-0.4,2.2-1.5,2.8H35.1
	c-0.5-0.5-0.9-1-1.3-1.6c-0.5-1.5,0.6-2.7,2.6-2.7c6.1,0,12.3,0,18.4,0h1.5v-16.7h-1.7c-14.8,0-29.6-0.1-44.5,0
	c-3.2,0-5.5-1-6.7-4.1L3.6,17.2z M44.9,97.1h30V81.7h-30L44.9,97.1z M60.9,136h22.2v-16.6H60.9V136z"/>
<path class="st0" d="M111.5,140.4c-2-0.5-3.9-1.5-5.5-2.9c-2-2.1-3.1-4.9-3-7.7c0-24.4,0-48.9,0-73.3c0-0.7,0.1-1.3,0.4-1.9
	c2.4-6.1,4.9-12.1,7.3-18.2c0.4-1.1,1-1.9,2.3-2s1.9,0.8,2.3,1.9c2.4,6.1,4.9,12.1,7.3,18.2c0.3,0.8,0.4,1.7,0.4,2.6
	c0,23.8,0,47.6,0.1,71.4c0,6.2-2.7,10.5-8.8,11.8L111.5,140.4z M118.4,120.3V58.2h-10.9v62.2H118.4z M107.4,124.9c0,2.1-0.1,4,0,6
	c0.2,2.7,2.3,4.9,5.1,5.1c2.6,0.3,5.1-1.4,5.7-4c0.3-2.4,0.4-4.7,0.4-7.1L107.4,124.9z M113,42.5l-4.5,11.2h9L113,42.5z"/>
<path class="st0" d="M72,15.3h28.2c2.8,0,3.4,0.6,3.4,3.3c0,4.5,0,9,0,13.5c0,2.2-0.7,2.9-2.9,2.9H43.4c-2.2,0-2.9-0.7-2.9-3
	c0-4.6,0-9.2,0-13.8c0-2.3,0.7-3,3-3L72,15.3z M44.9,30.5h54.2V19.7H44.9V30.5z"/>
<path class="st0" d="M72,39.4h28.2c0.5,0,1,0,1.5,0c1.1,0.1,1.9,1,1.8,2.1c0.1,1.1-0.7,2-1.8,2.1c-0.4,0.1-0.9,0.1-1.3,0H43.6
	c-0.4,0-0.8,0-1.2,0c-1.1-0.1-2-1.1-1.9-2.2c0-1.1,0.9-2,2-2.1c0.4,0,0.9,0,1.3,0L72,39.4z"/>
<path class="st0" d="M59.9,55.4H44c-0.3,0-0.6,0-0.9,0c-1.6-0.1-2.5-0.9-2.6-2.2s1-2.2,2.6-2.2c4,0,7.9,0,11.9,0h21.1
	c2.2,0,3.3,0.7,3.3,2.2s-1.1,2.1-3.3,2.2H59.9z"/>
<path class="st0" d="M59.9,64.1H43.8c-0.5,0-1,0-1.5-0.1c-1-0.1-1.8-1-1.8-2c-0.1-1,0.5-1.9,1.5-2.1c0.5-0.1,1-0.2,1.6-0.2h32.7
	c0.5,0,1.1,0,1.6,0.2c1,0.3,1.6,1.2,1.5,2.3c0,1-0.8,1.8-1.8,1.9c-0.6,0.1-1.2,0.1-1.7,0.1L59.9,64.1z"/>
<path class="st0" d="M60,72.8c-5.6,0-11.1,0-16.7,0c-0.7,0-1.5-0.2-2.1-0.6c-0.5-0.5-0.7-1.3-0.6-2c0.3-0.7,0.9-1.2,1.6-1.6
	c0.4-0.2,1-0.1,1.4-0.1h32.5c0.4,0,0.8,0,1.2,0c1.1,0,1.9,0.9,1.9,2c0.1,1.1-0.6,2.1-1.7,2.2c-0.4,0.1-0.9,0.1-1.3,0.1L60,72.8z"/>
<path class="st0" d="M91.4,55.4c-1.7,0-3.3,0-4.9,0s-2.7-0.9-2.7-2.2s1-2.2,2.6-2.2c3.3,0,6.7,0,10,0c1.7,0,2.6,0.8,2.7,2.2
	s-1,2.2-2.6,2.2S93.1,55.4,91.4,55.4z"/>
<path class="st0" d="M91.2,64.1c-1.6,0-3.2,0-4.8,0s-2.6-0.9-2.6-2.2s1-2.1,2.6-2.1c3.2,0,6.5,0,9.7,0c1.6,0,2.7,0.9,2.6,2.2
	s-1,2.1-2.6,2.1S92.8,64.1,91.2,64.1z"/>
<path class="st0" d="M91.4,68.5c1.6,0,3.3,0,4.9,0c1.2-0.1,2.3,0.8,2.4,2c0,0.1,0,0.1,0,0.2c0,1.2-1,2.2-2.2,2.1c-0.1,0-0.1,0-0.2,0
	c-3.4,0-6.8,0-10.1,0c-1.2,0.1-2.2-0.8-2.4-1.9c-0.1-1.2,0.8-2.2,1.9-2.4c0.1,0,0.3,0,0.4,0C87.9,68.4,89.6,68.5,91.4,68.5z"/>
</svg>
