<svg id="Layer_1" data-name="Layer 1" xmlns="http://www.w3.org/2000/svg" viewBox="0 0 144 144"><title>JJ-SiteIcons-share-v1</title><path d="M0,144Q0,72.64,0,1.29C0,.24.24,0,1.29,0Q72.64,0,144,0q0,71,0,141.95c0,2.29.27,2-2,2ZM32.37,63c-3.17.11-6-1.19-9-2.48C23.66,72,29.36,79,40.49,82a19.29,19.29,0,0,1-8,.57c-1.25-.14-1.5,0-1,1.19A21.06,21.06,0,0,0,44,96.11a34.71,34.71,0,0,0,7,1.56c-9.42,7.21-19.66,10.46-31.24,9.31a2.18,2.18,0,0,0,.6.49,60.59,60.59,0,0,0,38.93,8.4c17.82-2.09,32.12-10.49,42.84-24.82a60,60,0,0,0,12-37.68,2.87,2.87,0,0,1,1.22-2.6,56.58,56.58,0,0,0,7.07-6.61,7.89,7.89,0,0,0,2.12-3.09l0-.09,0,.11a3.11,3.11,0,0,0-1.75.4,46.61,46.61,0,0,1-10.07,2.4c4.18-3.32,7.88-6.62,9.25-11.77a1.62,1.62,0,0,0-1.2.32,85.59,85.59,0,0,1-11.09,4.38,2.1,2.1,0,0,1-2.47-.55A21.7,21.7,0,0,0,75.6,38.39a21.28,21.28,0,0,0-4.52,17.38c.15.88.1,1.34-1,1.15-1.61-.28-3.25-.37-4.86-.67-14.84-2.73-27.58-9.3-37.61-20.74-1-1.08-1.22-.74-1.76.28-3.93,7.44-3,16.07,2.62,22.83,1.25,1.51,2.59,2.93,3.89,4.39Z"/><path d="M124.6,41.09l0-.11,0,.09Z"/><path d="M32.36,63l.11.07-.1-.07Z"/></svg>