<?xml version="1.0" encoding="utf-8"?>
<!-- Generator: Adobe Illustrator 22.1.0, SVG Export Plug-In . SVG Version: 6.00 Build 0)  -->
<svg version="1.1" id="Layer_1" xmlns="http://www.w3.org/2000/svg" xmlns:xlink="http://www.w3.org/1999/xlink" x="0px" y="0px"
	 viewBox="0 0 144 144" style="enable-background:new 0 0 144 144;" xml:space="preserve">
<style type="text/css">
	.st0{fill:#003359;}
</style>
<g>
	<title>JJ-SiteIcons-CreateiveSeervices-v2</title>
	<path class="st0" d="M63.4,3c0.6,0.5,1.2,1.1,1.8,1.8c3.1,4.6,6.3,9.2,9.3,13.9c0.6,1,1,2.1,1,3.2c0.1,7.8,0,15.5,0,23.3v1.7h5.2
		c0-0.6,0-1.1,0-1.6c0.1-9.8,0.3-19.7,0.4-29.5c0-0.9,0.1-1.8,0.2-2.7c0.8-2.9,3.7-4.7,6.7-4c2,0.5,3.5,2,4,4
		c0.2,0.8,0.3,1.6,0.3,2.4c0.1,9.8,0.3,19.7,0.4,29.5c0,0.6,0,1.2,0,2c0.5,0,1.1,0,1.6,0c0.9,0.1,1.2-0.3,1.5-1.1
		c2.6-7.9,5.4-15.7,8-23.6c1.5-4.6,4.3-7.3,9.3-7.5c0.3-0.1,0.6-0.3,0.8-0.6c0.4-0.8,0.6-1.6,0.9-2.4c0.4-1,1.6-1.5,2.6-1.1
		c1.1,0.3,1.7,1.4,1.5,2.5c-0.4,1.9,0.1,3.9,1.4,5.4c1.9,2.6,2.3,6,1.2,9c-2.1,6-4.1,12-6.1,18.1c-0.1,0.4-0.3,0.8-0.4,1.4
		c1.2,0,2.2,0,3.2,0c1.9,0,2.9,0.7,3,2s-0.7,2.2-2.7,2.6c0,0.5,0,1.1,0,1.7c0,24.7,0,49.4,0,74.1c0,5.6-2.4,9.8-7.5,12.2
		c-1.7,0.8-3.5,1.2-5.3,1.3c-15.9,0.1-31.9,0.1-47.8,0c-7-0.1-12.6-5.8-12.7-12.8c0-2.4,0-4.8,0-7.3h-1.7c-3.1,0.1-6.2,0-9.3-0.2
		c-6.9-0.9-12-6.7-12.2-13.6c-0.2-11.3-0.2-22.5,0-33.8c0.2-7.8,6.6-14,14.4-14c2.9,0,5.7,0,8.7,0v-7.4c0,0-0.1-0.1-0.2-0.2
		c-1.7-0.3-2.6-1.2-2.4-2.5s1.1-2,2.8-2c1.6,0,3.1,0,4.9,0v-1.8c0-7.8,0-15.6,0-23.4c0-1.2,0.3-2.3,1-3.3c3.1-4.6,6.2-9.2,9.3-13.7
		c0.5-0.7,1.1-1.3,1.7-1.9H63.4z M49.7,51.6c0,0.5-0.1,0.9-0.1,1.4c0,24.7,0,49.5,0,74.2c0,5.8,3.5,9.3,9.3,9.3
		c15.2,0,30.4,0,45.7,0c0.9,0,1.9-0.1,2.8-0.3c4.3-1.1,6.6-4.3,6.6-9.3c0-24.7,0-49.3,0-73.9v-1.3H87.1v1.7c0,7.5,0,15.1,0,22.6
		c0,1-0.1,2-0.3,3c-1,3.5-4.6,5.6-8.2,4.7c-2.8-0.8-4.8-3.3-4.9-6.2c-0.1-2.4,0-4.8,0-7.1c0-1.6-1-2.7-2.3-2.6s-2.1,1-2.2,2.6
		c0,0.6,0,1.3,0,1.9c0,4.1,0.1,8.2-0.1,12.3c-0.2,3.6-3.3,6.4-6.9,6.2c-0.5,0-0.9-0.1-1.4-0.2c-3.3-0.9-5-3.4-5-7.3
		c0-10,0-20,0-29.9c0-0.5,0-1,0-1.6L49.7,51.6z M60.3,51.6c0,0.3,0,0.5,0,0.7c0,10.4,0,20.7,0,31.1c0,0.4,0,0.7,0.1,1.1
		c0.2,1,1.1,1.7,2.2,1.6c1,0,1.8-0.7,2-1.6c0.1-0.6,0.2-1.1,0.2-1.7c0-4.4-0.1-8.9,0.1-13.3c0.2-3.5,3.1-6.2,6.6-6.2
		c3.5,0,6.4,2.7,6.6,6.1c0.1,1.2,0.1,2.4,0.1,3.6c0,1.5,0,3.1,0.1,4.6c0.1,1,0.9,1.8,1.9,1.8c1,0.2,1.9-0.4,2.2-1.4
		c0.2-0.5,0.2-1,0.2-1.6c0-7.9,0-15.7,0-23.6c0-0.4-0.1-0.8-0.1-1.2L60.3,51.6z M45,108V72c-2.5,0-4.8,0-7.2,0c-2.1,0-3,0.8-3,2.9
		c0,3.2,0,6.5,0,9.7c0,6.8,0,13.6,0,20.5c0,1.8,0.7,2.8,2.3,2.9C39.8,108.1,42.4,108,45,108z M45,63.6h-7.8
		c-6.6,0-10.7,4.1-10.7,10.8c0,8.4,0,16.8,0,25.2c0,2.4-0.1,4.8,0,7.3c0.2,4.4,2.9,8.2,7.1,9c3.7,0.7,7.5,0.6,11.3,0.8v-4.1h-7
		c-4.9,0-7.7-2.8-7.7-7.7c0-9.9,0-19.7,0-29.6c0-4.9,2.8-7.7,7.8-7.7H45V63.6z M113.7,36.4c1.3-3.9,2.7-7.6,3.8-11.4
		c0.6-2.3-0.8-4.7-3.1-5.4c-2.2-0.8-4.6,0.2-5.6,2.4c-1.4,3.7-2.7,7.5-4,11.4L113.7,36.4z M54.7,46.9h5.8V25.2l-5.8-1.1L54.7,46.9z
		 M70.9,46.9V24.1l-5.8,1.1v21.7L70.9,46.9z M88.1,46.9c0-0.5,0.1-0.8,0.1-1.2c-0.1-10.2-0.3-20.4-0.5-30.5c0-0.3,0-0.6-0.1-0.9
		c-0.2-0.3-0.5-0.6-0.9-0.7c-0.4,0-0.8,0.2-1,0.5c-0.2,0.4-0.3,0.8-0.2,1.3c-0.1,10.2-0.3,20.4-0.4,30.7c0,0.3,0,0.6,0.1,0.9
		L88.1,46.9z M100.1,47c3.3,0,6.4,0,9.5,0c0.3-0.1,0.5-0.3,0.7-0.5c0.7-1.9,1.3-3.8,2-5.8l-8.9-3L100.1,47z M67.6,16.5
		c-2.9,1.2-6.1,1.2-9,0.2c-0.4-0.1-0.7,0.1-1,0.3c-0.6,0.8-1.2,1.7-1.8,2.6c4.5,1.4,9.3,1.4,13.8,0L67.6,16.5z M65.1,12.8l-2.3-3.5
		l-2.3,3.5L65.1,12.8z"/>
	<path class="st0" d="M81.7,105.7c-3.8,0-7-3-7-6.9c0,0,0-0.1,0-0.1c0-3.9,3.1-7,7-7s7,3.1,7,7S85.5,105.7,81.7,105.7L81.7,105.7z
		 M84.2,98.8c0-1.4-1.1-2.5-2.5-2.5c-1.4,0-2.5,1.1-2.5,2.5c0,1.4,1.1,2.5,2.5,2.5C83,101.2,84.1,100.2,84.2,98.8z"/>
	<rect x="97.9" y="108.8" class="st0" width="4.2" height="20.8"/>
	<rect x="89.5" y="117.1" class="st0" width="20.8" height="4.2"/>
</g>
</svg>
