<?xml version="1.0" encoding="utf-8"?>
<!-- Generator: Adobe Illustrator 22.0.1, SVG Export Plug-In . SVG Version: 6.00 Build 0)  -->
<svg version="1.1" baseProfile="tiny" id="Layer_1" xmlns="http://www.w3.org/2000/svg" xmlns:xlink="http://www.w3.org/1999/xlink"
	 x="0px" y="0px" viewBox="0 0 250 27" xml:space="preserve">
<g>
	<path fill="#003359" d="M-0.1,25.9v-3.1c1.3,0,2.1-0.2,2.5-0.6C2.9,21.8,3,21,3,19.8V1.4h4.4v18.4c0,1-0.1,1.9-0.3,2.6
		s-0.4,1.3-0.9,1.8c-0.4,0.5-1,0.9-1.7,1.1S3,25.8,2,25.8L-0.1,25.9L-0.1,25.9z"/>
	<path fill="#003359" d="M21.9,25.7c-2.4,0-4.2-0.7-5.3-2c-1-1.3-1.6-3.3-1.6-5.9V9c0-1.3,0.1-2.4,0.3-3.3c0.3-1,0.6-1.7,1.1-2.4
		C17,2.5,17.7,2,18.7,1.6c0.9-0.3,2-0.5,3.2-0.5c2.4,0,4.2,0.7,5.3,2c1,1.4,1.6,3.3,1.6,5.9v8.8c0,1.2-0.1,2.4-0.3,3.3
		c-0.3,1-0.6,1.7-1.1,2.4c-0.5,0.7-1.2,1.2-2.2,1.6S23.2,25.7,21.9,25.7z M20.8,22.2c0.3,0.1,0.7,0.2,1,0.2c0.4,0,0.8-0.1,1-0.2
		c0.3-0.1,0.5-0.3,0.7-0.5c0.2-0.2,0.3-0.4,0.4-0.8c0.1-0.3,0.2-0.6,0.2-1c0-0.3,0.1-0.7,0.1-1.1V8c0-0.6,0-1-0.1-1.5
		c-0.1-0.3-0.2-0.8-0.3-1c-0.2-0.3-0.4-0.6-0.8-0.8c-0.3-0.2-0.8-0.3-1.3-0.3s-1,0.1-1.3,0.3c-0.3,0.2-0.6,0.4-0.8,0.8
		c-0.2,0.3-0.3,0.7-0.3,1c-0.1,0.3-0.1,0.9-0.1,1.5v10.8c0,0.4,0,0.9,0.1,1.1c0,0.3,0.1,0.6,0.2,1c0.1,0.3,0.3,0.6,0.4,0.8
		C20.3,22,20.5,22.2,20.8,22.2z"/>
	<path fill="#003359" d="M36.4,25.4v-24h4.4v10.1h4.9V1.4H50v24h-4.4V14.5h-4.9v10.8H36.4z"/>
	<path fill="#003359" d="M57.9,25.4v-24h3L66.8,15V1.4h3.6v24h-2.9l-5.9-14.2v14.2H57.9z"/>
	<path fill="#003359" d="M84.3,25.7c-4.2,0-6.5-2.4-6.6-7.3l3.8-0.8c0.1,3.1,1,4.7,2.7,4.7c0.7,0,1.1-0.2,1.5-0.6
		c0.3-0.4,0.5-1,0.5-1.7s-0.1-1.3-0.3-1.8c-0.3-0.5-0.5-1-0.9-1.4c-0.3-0.3-0.8-0.8-1.4-1.3l-3.1-2.6c-1-0.8-1.6-1.7-2.1-2.5
		c-0.4-0.9-0.7-1.9-0.7-3.2c0-1.8,0.5-3.3,1.7-4.4c1.1-1,2.6-1.6,4.5-1.6c0.9,0,1.7,0.1,2.4,0.3c0.7,0.3,1.2,0.5,1.7,0.9
		s0.8,0.9,1.1,1.4s0.5,1.1,0.7,1.7s0.3,1.3,0.3,2l-3.8,0.7C86.1,7.7,86,7.4,86,7s-0.1-0.7-0.3-1c-0.1-0.3-0.3-0.7-0.4-0.9
		c0-0.2-0.3-0.3-0.5-0.5c-0.3-0.2-0.6-0.2-1-0.2c-0.6,0-1.1,0.3-1.5,0.6c-0.3,0.3-0.5,0.9-0.5,1.6c0,0.8,0.2,1.4,0.4,1.9
		c0.3,0.5,0.8,1,1.4,1.6l3.1,2.7c0.5,0.4,1,1,1.4,1.4c0.3,0.4,0.8,1,1.1,1.5c0.3,0.6,0.6,1.2,0.8,1.8c0.2,0.7,0.3,1.4,0.3,2.2
		c0,1.7-0.5,3.1-1.7,4.3C87.6,25.1,86.1,25.7,84.3,25.7z"/>
	<path fill="#003359" d="M103.8,25.7c-2.4,0-4.2-0.7-5.3-2c-1-1.3-1.6-3.3-1.6-5.9V9c0-1.3,0.1-2.4,0.3-3.3s0.6-1.7,1.1-2.4
		c0.5-0.7,1.2-1.2,2.2-1.6c0.9-0.3,2-0.5,3.2-0.5c2.4,0,4.2,0.7,5.3,2c1,1.3,1.6,3.2,1.6,5.8v8.8c0,1.2-0.1,2.4-0.3,3.3
		c-0.3,1-0.6,1.7-1.1,2.4c-0.5,0.7-1.2,1.2-2.2,1.6C106,25.5,105,25.7,103.8,25.7z M102.6,22.2c0.3,0.1,0.7,0.2,1,0.2
		c0.4,0,0.8-0.1,1-0.2s0.5-0.3,0.7-0.5c0.2-0.2,0.3-0.4,0.4-0.8c0.1-0.3,0.2-0.6,0.2-1c0-0.3,0.1-0.7,0.1-1.1V8c0-0.6,0-1-0.1-1.5
		c-0.1-0.3-0.2-0.8-0.3-1c-0.2-0.3-0.4-0.6-0.8-0.8c-0.3-0.2-0.8-0.3-1.3-0.3c-0.5,0-1,0.1-1.3,0.3c-0.3,0.2-0.6,0.4-0.8,0.8
		c-0.2,0.3-0.3,0.7-0.3,1C101,6.9,101,7.4,101,8v10.8c0,0.4,0,0.9,0.1,1.1c0,0.3,0.1,0.6,0.2,1c0.1,0.3,0.3,0.6,0.4,0.8
		C102.1,22,102.4,22.2,102.6,22.2z"/>
	<path fill="#003359" d="M118.1,25.4v-24h3l5.9,13.5V1.4h3.6v24h-2.9l-5.9-14.2v14.2H118.1z"/>
	<path fill="#003359" d="M147.2,25.9v-3.1c1.3,0,2.1-0.2,2.5-0.6c0.4-0.4,0.6-1.2,0.6-2.4V1.4h4.4v18.4c0,1-0.1,1.9-0.3,2.6
		s-0.4,1.3-0.9,1.8c-0.4,0.5-1,0.9-1.7,1.1c-0.7,0.3-1.6,0.3-2.6,0.3L147.2,25.9L147.2,25.9z"/>
	<path fill="#003359" d="M169.1,25.7c-2.4,0-4.2-0.7-5.3-2c-1-1.3-1.6-3.3-1.6-5.9V9c0-1.3,0.1-2.4,0.3-3.3c0.3-1,0.6-1.7,1.1-2.4
		s1.2-1.2,2.2-1.6c0.9-0.3,2-0.5,3.2-0.5c2.4,0,4.2,0.7,5.3,2c1,1.3,1.6,3.2,1.6,5.8v8.8c0,1.2-0.1,2.4-0.3,3.3
		c-0.3,1-0.6,1.7-1.1,2.4s-1.2,1.2-2.2,1.6C171.5,25.5,170.5,25.7,169.1,25.7z M168.1,22.2c0.3,0.1,0.7,0.2,1,0.2
		c0.4,0,0.8-0.1,1-0.2s0.5-0.3,0.7-0.5c0.2-0.2,0.3-0.4,0.4-0.8c0.1-0.3,0.2-0.6,0.2-1c0-0.3,0.1-0.7,0.1-1.1V8c0-0.6,0-1-0.1-1.5
		c-0.1-0.3-0.2-0.8-0.3-1c-0.2-0.3-0.4-0.6-0.8-0.8c-0.3-0.2-0.8-0.3-1.3-0.3s-1,0.1-1.3,0.3c-0.3,0.2-0.6,0.4-0.8,0.8
		s-0.3,0.7-0.3,1c-0.1,0.3-0.1,0.9-0.1,1.5v10.8c0,0.4,0,0.9,0.1,1.1c0,0.3,0.1,0.6,0.2,1c0.1,0.3,0.3,0.6,0.4,0.8
		C167.6,22,167.7,22.2,168.1,22.2z"/>
	<path fill="#003359" d="M183.6,25.4v-24h3l5.9,13.5V1.4h3.6v24h-2.8l-5.9-14.2v14.2H183.6z"/>
	<path fill="#003359" d="M203.9,25.4v-24H214v3.1h-5.7v6.9h4.5v3.1h-4.5v7.9h5.8v3.1H203.9z"/>
	<path fill="#003359" d="M226.9,25.7c-4.2,0-6.5-2.4-6.6-7.3l3.8-0.8c0.1,3.1,1,4.7,2.7,4.7c0.7,0,1.1-0.2,1.5-0.6
		c0.3-0.4,0.5-1,0.5-1.7s-0.1-1.3-0.3-1.8c-0.3-0.5-0.5-1-0.9-1.4c-0.3-0.3-0.8-0.8-1.4-1.3l-3.1-2.7c-1-0.8-1.6-1.7-2.1-2.5
		c-0.4-0.9-0.7-1.9-0.7-3.2c0-1.8,0.5-3.3,1.7-4.4c1.1-1,2.6-1.6,4.5-1.6c0.9,0,1.7,0.1,2.4,0.3c0.7,0.3,1.2,0.5,1.7,0.9
		s0.8,0.9,1.1,1.4c0.3,0.5,0.5,1.1,0.7,1.7c0.2,0.6,0.3,1.3,0.3,2l-3.8,0.7c0-0.5-0.1-0.9-0.1-1.2s-0.1-0.7-0.3-1
		c-0.1-0.3-0.3-0.7-0.4-0.9c-0.2-0.3-0.4-0.4-0.7-0.5c-0.3-0.2-0.6-0.2-1-0.2c-0.6,0-1.1,0.3-1.5,0.6s-0.5,0.9-0.5,1.6
		c0,0.8,0.2,1.4,0.4,1.9c0.3,0.5,0.8,1,1.4,1.6l3.1,2.7c0.5,0.4,1,1,1.4,1.4c0.3,0.4,0.8,1,1.1,1.5c0.3,0.6,0.6,1.2,0.8,1.8
		c0.2,0.7,0.3,1.4,0.3,2.2c0,1.7-0.5,3.1-1.7,4.3C230.2,25.1,228.8,25.7,226.9,25.7z"/>
	<polygon fill="#003359" points="247.6,6.2 247.6,6.2 245.2,6.2 245.2,3.9 245.2,1.4 242.7,1.4 242.7,3.9 242.7,6.2 240.4,6.2 
		237.9,6.2 237.9,8.7 240.4,8.7 242.7,8.7 242.7,11.1 242.7,13.6 245.2,13.6 245.2,11.1 245.2,8.7 247.6,8.7 247.6,8.7 250,8.7 
		250,6.2 	"/>
</g>
</svg>
